<svg width="33" height="33" viewBox="0 0 33 33" fill="none" xmlns="http://www.w3.org/2000/svg">
<path d="M16.668 12.8049C17.8907 11.5556 19.4827 10.7383 21.3347 10.7383C23.2796 10.7383 25.1449 11.5109 26.5201 12.8862C27.8954 14.2614 28.668 16.1267 28.668 18.0716V28.0716H26.0014V18.0716C26.0014 16.8339 25.5097 15.647 24.6345 14.7718C23.7593 13.8966 22.5724 13.4049 21.3347 13.4049C20.097 13.4049 18.91 13.8966 18.0349 14.7718C17.1597 15.647 16.668 16.8339 16.668 18.0716V28.0716H14.0014V11.4049H16.668V12.8049ZM7.33469 8.73828C6.80425 8.73828 6.29555 8.52757 5.92047 8.1525C5.5454 7.77742 5.33469 7.26871 5.33469 6.73828C5.33469 6.20785 5.5454 5.69914 5.92047 5.32407C6.29555 4.94899 6.80425 4.73828 7.33469 4.73828C7.86512 4.73828 8.37383 4.94899 8.7489 5.32407C9.12397 5.69914 9.33469 6.20785 9.33469 6.73828C9.33469 7.26871 9.12397 7.77742 8.7489 8.1525C8.37383 8.52757 7.86512 8.73828 7.33469 8.73828ZM6.00135 11.4049H8.66802V28.0716H6.00135V11.4049Z" fill="#2F2E2E"/>
</svg>
