<svg width="121" height="121" viewBox="0 0 121 121" fill="none" xmlns="http://www.w3.org/2000/svg">
<path d="M14.8484 26.6387C14.6262 20.2496 19.6034 14.3584 26.3319 14.3584H95.2756C102.004 14.3584 106.981 20.2496 106.759 26.6387C106.545 32.7756 106.823 40.7256 108.823 47.2075C110.831 53.71 114.215 57.819 119.758 58.3478V64.3356C114.215 64.8643 110.831 68.9734 108.823 75.4759C106.823 81.9578 106.545 89.9078 106.759 96.0447C106.981 102.434 102.004 108.324 95.2756 108.324H26.3319C19.6034 108.324 14.6262 102.433 14.8484 96.0447C15.0622 89.9078 14.7847 81.9578 12.7831 75.4759C10.7769 68.9743 7.38311 64.8643 1.83968 64.3356V58.3478C7.38311 57.82 10.7769 53.71 12.7831 47.2075C14.7847 40.7256 15.0612 32.7756 14.8484 26.6387Z" fill="url(#paint0_linear_332_4848)"/>
<g filter="url(#filter0_d_332_4848)">
<path d="M63.7154 86.6615C74.6082 86.6615 81.1722 81.3281 81.1722 72.5311C81.1722 65.8814 76.4887 61.0674 69.5343 60.3053V60.0282C74.6437 59.197 78.6531 54.4523 78.6531 49.1534C78.6531 41.6032 72.6923 36.6851 63.609 36.6851H43.1716V86.6615H63.7154ZM51.1195 43.0231H61.6931C67.4411 43.0231 70.7052 45.5859 70.7052 50.2268C70.7052 55.1796 66.9088 57.9502 60.0254 57.9502H51.1195V43.0231ZM51.1195 80.3235V63.8725H61.6219C69.144 63.8725 73.047 66.6431 73.047 72.046C73.047 77.4488 69.2506 80.3235 62.0832 80.3235H51.1195Z" fill="url(#paint1_linear_332_4848)"/>
</g>
<defs>
<filter id="filter0_d_332_4848" x="42.189" y="35.9481" width="39.9658" height="51.9418" filterUnits="userSpaceOnUse" color-interpolation-filters="sRGB">
<feFlood flood-opacity="0" result="BackgroundImageFix"/>
<feColorMatrix in="SourceAlpha" type="matrix" values="0 0 0 0 0 0 0 0 0 0 0 0 0 0 0 0 0 0 127 0" result="hardAlpha"/>
<feOffset dy="0.24566"/>
<feGaussianBlur stdDeviation="0.49132"/>
<feColorMatrix type="matrix" values="0 0 0 0 0 0 0 0 0 0 0 0 0 0 0 0 0 0 0.15 0"/>
<feBlend mode="normal" in2="BackgroundImageFix" result="effect1_dropShadow_332_4848"/>
<feBlend mode="normal" in="SourceGraphic" in2="effect1_dropShadow_332_4848" result="shape"/>
</filter>
<linearGradient id="paint0_linear_332_4848" x1="19.3621" y1="16.8452" x2="122.401" y2="98.639" gradientUnits="userSpaceOnUse">
<stop stop-color="#9013FE"/>
<stop offset="1" stop-color="#6610F2"/>
</linearGradient>
<linearGradient id="paint1_linear_332_4848" x1="46.7672" y1="39.9738" x2="69.7978" y2="78.9255" gradientUnits="userSpaceOnUse">
<stop stop-color="white"/>
<stop offset="1" stop-color="#F1E5FC"/>
</linearGradient>
</defs>
</svg>
