<svg width="121" height="121" viewBox="0 0 121 121" fill="none" xmlns="http://www.w3.org/2000/svg">
<path d="M60.0313 71.3462C65.9338 71.3462 70.7188 66.5612 70.7188 60.6587C70.7188 54.7561 65.9338 49.9712 60.0313 49.9712C54.1287 49.9712 49.3438 54.7561 49.3438 60.6587C49.3438 66.5612 54.1287 71.3462 60.0313 71.3462Z" fill="#61DAFB"/>
<path d="M100.625 43.0337C98.5625 42.2837 96.4062 41.5337 94.1562 40.8774C94.7188 38.6274 95.1875 36.3774 95.5625 34.2212C97.5312 21.8462 95.375 13.1274 89.375 9.75244C87.5938 8.72119 85.625 8.25244 83.375 8.25244C76.8125 8.25244 68.4688 13.1274 60.0312 21.2837C51.5938 13.1274 43.25 8.25244 36.6875 8.25244C34.4375 8.25244 32.4688 8.72119 30.6875 9.75244C24.6875 13.2212 22.5312 21.9399 24.5 34.2212C24.875 36.3774 25.3438 38.6274 25.9062 40.8774C23.6562 41.5337 21.5 42.1899 19.4375 43.0337C7.71875 47.5337 1.34375 53.7212 1.34375 60.6587C1.34375 67.5962 7.8125 73.7837 19.4375 78.2837C21.5 79.0337 23.6562 79.7837 25.9062 80.4399C25.3438 82.6899 24.875 84.9399 24.5 87.0962C22.5312 99.4712 24.6875 108.19 30.6875 111.565C32.4688 112.596 34.4375 113.065 36.6875 113.065C43.3437 113.065 51.6875 108.19 60.0312 100.034C68.4688 108.19 76.8125 113.065 83.375 113.065C85.625 113.065 87.5938 112.596 89.375 111.565C95.375 108.096 97.5312 99.3774 95.5625 87.0962C95.1875 84.9399 94.7188 82.6899 94.1562 80.4399C96.4062 79.7837 98.5625 79.1274 100.625 78.2837C112.344 73.7837 118.719 67.5962 118.719 60.6587C118.719 53.7212 112.344 47.5337 100.625 43.0337ZM86.75 14.4399C90.5938 16.6899 91.9062 23.6274 90.3125 33.4712C90.0312 35.4399 89.5625 37.5024 89 39.6587C84.125 38.5337 78.9688 37.7837 73.5312 37.3149C70.3438 32.8149 67.0625 28.7837 63.7812 25.1274C70.7188 18.2837 77.75 13.5962 83.4688 13.5962C84.6875 13.5962 85.8125 13.8774 86.75 14.4399ZM76.25 70.0337C74.5625 73.0337 72.5937 76.0337 70.5312 79.0337C67.0625 79.3149 63.5938 79.4087 60.0312 79.4087C56.375 79.4087 52.9062 79.3149 49.5312 79.0337C47.4687 76.0337 45.5937 73.0337 43.9062 70.0337C42.125 66.9399 40.4375 63.7524 38.9375 60.6587C40.4375 57.5649 42.125 54.3774 43.9062 51.2837C45.5937 48.2837 47.5625 45.2837 49.625 42.2837C53.0938 42.0024 56.5625 41.9087 60.125 41.9087C63.7812 41.9087 67.25 42.0024 70.625 42.2837C72.6875 45.2837 74.5625 48.2837 76.25 51.2837C78.0312 54.3774 79.7188 57.5649 81.2188 60.6587C79.625 63.7524 78.0312 66.8462 76.25 70.0337ZM84.0312 66.9399C85.4375 70.2212 86.5625 73.4087 87.5938 76.5962C84.4062 77.3462 81.0312 77.9087 77.4688 78.3774C78.5938 76.5962 79.8125 74.7212 80.8437 72.7524C81.9687 70.7837 83 68.8149 84.0312 66.9399ZM60.0312 92.3462C57.7812 89.9087 55.625 87.2837 53.5625 84.5649C55.7187 84.6587 57.875 84.7524 60.0312 84.7524C62.1875 84.7524 64.3438 84.6587 66.5 84.5649C64.4375 87.2837 62.2812 89.9087 60.0312 92.3462ZM42.5938 78.2837C39.0312 77.8149 35.6562 77.2524 32.4687 76.5024C33.5 73.4087 34.625 70.1274 36.0312 66.8462C37.0625 68.7212 38.0937 70.6899 39.2187 72.5649C40.3437 74.6274 41.4688 76.4087 42.5938 78.2837ZM36.0312 54.3774C34.625 51.0962 33.5 47.9087 32.4687 44.7212C35.6562 43.9712 39.0312 43.4087 42.5938 42.9399C41.4688 44.7212 40.25 46.5962 39.2187 48.5649C38.0937 50.5337 37.0625 52.5024 36.0312 54.3774ZM60.0312 28.9712C62.2812 31.4087 64.4375 34.0337 66.5 36.7524C64.3438 36.6587 62.1875 36.5649 60.0312 36.5649C57.875 36.5649 55.7187 36.6587 53.5625 36.7524C55.625 34.0337 57.7812 31.4087 60.0312 28.9712ZM80.8437 48.6587L77.4688 43.0337C81.0312 43.5024 84.4062 44.0649 87.5938 44.8149C86.5625 47.9087 85.4375 51.1899 84.0312 54.4712C83 52.5024 81.9687 50.5337 80.8437 48.6587ZM29.75 33.4712C28.1563 23.6274 29.4687 16.6899 33.3125 14.4399C34.25 13.8774 35.375 13.5962 36.5938 13.5962C42.2188 13.5962 49.25 18.1899 56.2812 25.1274C53 28.6899 49.7187 32.8149 46.5312 37.3149C41.0937 37.7837 35.9375 38.6274 31.0625 39.6587C30.5 37.5024 30.125 35.4399 29.75 33.4712ZM6.59375 60.6587C6.59375 56.2524 11.9375 51.5649 21.3125 48.0962C23.1875 47.3462 25.25 46.6899 27.3125 46.1274C28.8125 50.8149 30.6875 55.7837 32.9375 60.7524C30.6875 65.7212 28.7188 70.5962 27.3125 75.2837C14.375 71.5337 6.59375 65.9087 6.59375 60.6587ZM33.3125 106.877C29.4687 104.627 28.1563 97.6899 29.75 87.8462C30.0313 85.8774 30.5 83.8149 31.0625 81.6587C35.9375 82.7837 41.0937 83.5337 46.5312 84.0024C49.7187 88.5024 53 92.5337 56.2812 96.1899C49.3438 103.034 42.3125 107.721 36.5938 107.721C35.375 107.721 34.25 107.44 33.3125 106.877ZM90.3125 87.8462C91.9062 97.6899 90.5938 104.627 86.75 106.877C85.8125 107.44 84.6875 107.721 83.4688 107.721C77.8438 107.721 70.8125 103.127 63.7812 96.1899C67.0625 92.6274 70.3438 88.5024 73.5312 84.0024C78.9688 83.5337 84.125 82.6899 89 81.6587C89.5625 83.8149 89.9375 85.8774 90.3125 87.8462ZM98.75 73.2212C96.875 73.9712 94.8125 74.6274 92.75 75.1899C91.25 70.5024 89.375 65.5337 87.125 60.5649C89.375 55.5962 91.3438 50.7212 92.75 46.0337C105.688 49.7837 113.469 55.4087 113.469 60.6587C113.469 65.0649 108.031 69.7524 98.75 73.2212Z" fill="#61DAFB"/>
</svg>
