<svg width="121" height="121" viewBox="0 0 121 121" fill="none" xmlns="http://www.w3.org/2000/svg">
<path fill-rule="evenodd" clip-rule="evenodd" d="M82.1209 94.5392C82.2793 94.2345 82.4312 93.9654 82.5606 93.687C82.6422 93.5089 82.7678 93.4732 82.945 93.4779C84.0072 93.5079 85.0693 93.5407 86.1325 93.5511C87.0353 93.5604 87.94 93.5436 88.8437 93.5332C89.8618 93.5211 90.88 93.4676 91.8972 93.4967C93.2518 93.5361 94.5718 93.8014 95.7972 94.4042C97.2606 95.1251 98.3678 96.2229 99.1225 97.6695C99.5969 98.5867 99.8931 99.5856 99.9953 100.613C100.157 102.121 100.051 103.594 99.5725 105.035C98.98 106.822 97.855 108.19 96.2922 109.215C95.0893 110.003 93.7703 110.469 92.3565 110.735C90.8603 111.018 89.3593 110.927 87.8584 110.931C86.2122 110.938 84.5668 110.902 82.9206 110.884C82.6328 110.881 82.5915 110.826 82.6675 110.552L82.7378 110.299C82.8981 109.794 82.9843 109.772 83.4962 109.687C83.859 109.63 84.2061 109.498 84.5153 109.3C84.6878 109.186 84.759 108.888 84.8265 108.658C84.8847 108.457 84.8875 108.237 84.8893 108.025C84.9128 104.814 84.9372 101.604 84.9503 98.3951C84.9539 97.5834 84.9336 96.7718 84.8893 95.9614C84.8575 95.3942 84.5547 95.0061 83.8797 94.872C83.3547 94.7679 82.8259 94.6873 82.2981 94.5945L82.1209 94.5392ZM97.1922 102.314C97.1209 101.674 97.0862 101.029 96.9718 100.399C96.6981 98.8873 96.0362 97.5701 94.8737 96.5379C92.994 94.8701 90.7309 94.6132 88.359 94.812C87.819 94.857 87.7028 95.0417 87.6943 95.5967C87.6812 96.3842 87.6681 97.1717 87.6672 97.9592C87.6634 100.457 87.6634 102.954 87.6672 105.452C87.6681 106.162 87.6756 106.873 87.6962 107.582C87.7187 108.307 87.9822 108.921 88.6928 109.203C89.8131 109.646 90.9915 109.699 92.1672 109.518C94.045 109.23 95.3584 108.136 96.2397 106.496C96.9372 105.195 97.134 103.774 97.1922 102.314ZM101.757 110.818C101.734 110.429 101.894 110.107 102.091 109.812C102.144 109.732 102.328 109.736 102.454 109.711L103.529 109.498C103.908 109.417 104.108 109.162 104.162 108.79C104.197 108.544 104.231 108.296 104.234 108.048C104.259 106.082 104.278 104.116 104.289 102.15C104.298 100.181 104.291 98.2123 104.291 96.2436L104.282 95.8676C104.244 95.2348 103.938 94.9067 103.31 94.8139L101.948 94.6067C101.78 94.5842 101.719 94.5036 101.78 94.3545C101.885 94.1004 101.986 93.837 102.134 93.6082C102.189 93.5239 102.376 93.4911 102.501 93.4939C103.152 93.5032 103.802 93.552 104.453 93.5511L110.117 93.5173C111.208 93.5164 112.262 93.7067 113.24 94.2289C114.317 94.8026 114.92 95.6904 115.093 96.8998C115.273 98.1701 114.887 99.2407 113.959 100.091C113.578 100.442 113.084 100.67 112.641 100.955L112.497 101.045C112.907 101.196 113.298 101.327 113.679 101.482C114.793 101.939 115.679 102.652 116.147 103.791C116.518 104.69 116.518 105.628 116.298 106.56C115.957 108.019 114.996 108.989 113.747 109.723C112.574 110.412 111.304 110.813 109.952 110.881C108.706 110.944 107.453 110.92 106.203 110.934L105.48 110.938C104.275 110.91 103.071 110.88 101.867 110.848L101.757 110.818ZM106.948 105.109H106.96C106.96 105.726 106.952 106.343 106.963 106.96C106.97 107.359 106.956 107.77 107.042 108.154C107.172 108.729 107.434 109.248 108.079 109.413C108.942 109.639 109.842 109.679 110.721 109.529C111.825 109.337 112.705 108.784 113.188 107.733C113.546 106.952 113.599 106.124 113.477 105.278C113.313 104.164 112.722 103.356 111.738 102.827C111.093 102.479 110.405 102.266 109.672 102.238C108.851 102.207 108.029 102.205 107.207 102.18C106.977 102.173 106.945 102.29 106.946 102.48C106.951 103.355 106.948 104.232 106.948 105.109ZM108.696 100.914C109.145 100.892 109.653 100.885 110.159 100.834C111.126 100.738 111.808 100.251 112.163 99.3261C112.344 98.8564 112.337 98.3726 112.341 97.8842C112.355 96.612 111.613 95.5695 110.404 95.1382C109.472 94.8054 108.51 94.7998 107.542 94.8261C107.15 94.8364 106.975 95.0079 106.969 95.4026L106.911 100.549C106.908 100.753 106.997 100.841 107.195 100.848L108.696 100.914Z" fill="#94795D"/>
<path fill-rule="evenodd" clip-rule="evenodd" d="M10.1997 109.829L10.1312 110.714C9.49372 110.714 8.90591 110.709 8.3181 110.716C7.21091 110.727 6.10372 110.745 4.9956 110.761L4.88872 110.767C4.73029 110.749 4.44247 110.749 4.43497 110.702C4.3881 110.438 4.4031 110.162 4.41529 109.889C4.41622 109.858 4.52404 109.819 4.58685 109.804L5.44841 109.611C5.9856 109.472 6.17497 109.24 6.20029 108.685C6.22935 108.06 6.25841 107.434 6.26122 106.808C6.26966 105.269 6.26029 103.731 6.26685 102.192C6.26779 101.832 6.1431 101.564 5.80747 101.418C5.40866 101.241 5.00704 101.07 4.60279 100.906C4.41154 100.829 4.1631 100.787 4.1856 100.53C4.2081 100.268 4.44904 100.2 4.67591 100.148C5.61529 99.9336 6.5556 99.7245 7.49216 99.4958C7.79404 99.4217 8.08279 99.297 8.44372 99.1714C8.46247 99.3664 8.49716 99.552 8.49341 99.7376L8.4381 100.62C8.43716 100.719 8.48872 100.852 8.56279 100.908C8.60779 100.942 8.75872 100.88 8.83372 100.821C9.63435 100.212 10.4818 99.6861 11.4484 99.3795C12.9456 98.9042 14.2309 99.3448 15.1309 100.636C15.4478 101.09 15.4487 101.09 15.8884 100.773C16.6431 100.224 17.4325 99.7404 18.3156 99.4217C20.2544 98.7214 22.1172 99.6101 22.7912 101.563C23.0369 102.272 23.1306 103.004 23.1287 103.752L23.1109 108.719C23.11 109.129 23.2459 109.362 23.6359 109.49C24.0737 109.633 24.5275 109.731 25.0206 109.861L24.9062 110.715C24.3456 110.715 23.83 110.711 23.3144 110.716C22.0543 110.727 20.7943 110.734 19.5353 110.763C19.3159 110.768 19.2587 110.714 19.2475 110.509C19.2109 109.851 19.2053 109.852 19.824 109.704L20.0322 109.651C20.6369 109.486 20.8384 109.3 20.8431 108.687C20.8572 106.926 20.8937 105.161 20.8047 103.404C20.7118 101.582 19.2653 100.611 17.499 101.078C16.929 101.234 16.3921 101.493 15.9147 101.841C15.7506 101.959 15.7197 102.094 15.7328 102.299C15.7825 103.075 15.8134 103.852 15.82 104.63C15.8312 105.99 15.8143 107.35 15.82 108.711C15.8218 109.263 16.0103 109.474 16.555 109.601L17.364 109.788L17.514 109.821C17.5253 110.08 17.5356 110.339 17.5234 110.598C17.5159 110.76 17.3903 110.774 17.2497 110.771C16.4631 110.751 15.6756 110.725 14.889 110.727C13.9318 110.729 12.9756 110.756 12.0193 110.773H11.7943C11.7943 110.498 11.7812 110.236 11.8037 109.974C11.8084 109.911 11.919 109.823 11.995 109.804L12.9381 109.604C13.3384 109.505 13.5297 109.3 13.5522 108.893C13.659 107.009 13.7359 105.124 13.5587 103.24C13.5155 102.868 13.4123 102.506 13.2531 102.167C12.7703 101.1 11.6837 100.655 10.4303 100.975C9.83497 101.127 9.29779 101.4 8.78966 101.744C8.67886 101.812 8.58784 101.908 8.52567 102.022C8.4635 102.137 8.43234 102.265 8.43529 102.395C8.43529 104.275 8.44185 106.155 8.44747 108.034L8.45779 108.758C8.46904 109.264 8.68372 109.53 9.18529 109.639C9.50779 109.712 9.83404 109.761 10.1997 109.829Z" fill="#50382B"/>
<path fill-rule="evenodd" clip-rule="evenodd" d="M66.879 99.3634C67.0244 100.07 67.0215 100.706 66.5022 101.188C65.9865 101.667 65.334 101.506 64.6975 101.399C64.7565 101.734 64.8222 102.019 64.854 102.308C65.0856 104.454 64.1622 106.047 62.1719 106.957C61.42 107.3 60.6222 107.428 59.8075 107.493C59.4025 107.525 59.0481 107.835 59.0097 108.168C58.9703 108.505 59.1822 108.852 59.6059 108.953C60.1056 109.072 60.6269 109.106 61.1397 109.165C62.2403 109.291 63.3531 109.348 64.4406 109.545C66.085 109.841 67.0028 111.276 66.7131 112.928C66.4553 114.398 65.604 115.468 64.4172 116.288C62.4175 117.674 60.2237 118.079 57.8875 117.372C56.5515 116.967 55.6094 116.088 55.284 114.667C55.1209 113.956 55.2944 113.312 55.8297 112.829C56.4662 112.257 57.159 111.747 57.8256 111.207L58.0412 110.99L57.7937 110.817C57.114 110.494 56.5703 110.053 56.3594 109.286C56.2872 109.026 56.3622 108.856 56.5825 108.723C56.9575 108.497 57.3306 108.267 57.7009 108.033C57.8753 107.925 58.0478 107.812 58.21 107.687C58.4312 107.518 58.4115 107.392 58.1472 107.295C57.5322 107.068 56.9856 106.739 56.5619 106.233C55.854 105.388 55.6534 104.382 55.7115 103.32C55.8025 101.66 56.7034 100.567 58.1678 99.8641C59.9087 99.0288 61.6553 98.9763 63.43 99.7375C64.0862 100.019 64.7781 100.079 65.4822 100.03C66.0081 99.9925 66.4675 99.7938 66.879 99.3634ZM60.4637 111.252C59.1568 111.241 58.7472 111.402 57.9803 112.183C57.1215 113.058 57.1262 114.273 57.9831 115.152C58.6337 115.818 59.4456 116.131 60.3484 116.224C61.4031 116.333 62.4419 116.289 63.4 115.761C64.4219 115.196 64.93 114.146 64.7003 113.088C64.51 112.216 63.8669 111.816 63.084 111.587C62.1934 111.326 61.2728 111.276 60.4637 111.252ZM57.8969 102.901C57.9447 103.263 57.9644 103.631 58.045 103.986C58.254 104.907 58.6544 105.716 59.5703 106.126C60.6456 106.608 62.019 106.401 62.4897 104.892C62.8112 103.887 62.7737 102.802 62.3837 101.823C62.2184 101.375 61.9209 100.987 61.5306 100.713C60.5969 100.061 58.9122 99.9747 58.2259 101.415C58.0028 101.883 57.9156 102.38 57.8969 102.901Z" fill="#4F382B"/>
<path fill-rule="evenodd" clip-rule="evenodd" d="M44.7062 99.1318C44.7409 99.2921 44.8103 99.474 44.8122 99.6568C44.815 100.005 44.7775 100.352 44.7578 100.7V101.002L45.0522 100.777C45.8584 100.113 46.7247 99.5481 47.7334 99.2434C49.554 98.6949 51.3728 99.6915 51.9662 101.546C52.1912 102.251 52.2803 102.976 52.2887 103.712C52.3075 105.349 52.3187 106.986 52.3356 108.623C52.3412 109.211 52.4087 109.316 52.9647 109.486C53.281 109.58 53.6037 109.652 53.9303 109.7C54.1094 109.728 54.1862 109.799 54.1769 109.974L54.1787 110.135C54.1722 110.813 54.1253 110.844 53.4681 110.842C51.895 110.839 50.3228 110.849 48.7497 110.862C48.2809 110.866 48.28 110.88 48.2331 110.416L48.2237 110.15C48.2528 109.751 48.2622 109.755 48.655 109.696C48.9194 109.657 49.1819 109.596 49.4397 109.529C49.705 109.46 49.8325 109.264 49.8681 109.002C49.8859 108.869 49.9094 108.736 49.9084 108.602C49.8859 106.814 49.915 105.023 49.8175 103.237C49.7387 101.792 48.6362 100.932 47.1859 101.03C46.4868 101.079 45.8148 101.32 45.2444 101.727C44.8572 101.998 44.7794 102.389 44.7812 102.81C44.7887 104.482 44.8047 106.155 44.8225 107.828C44.8262 108.195 44.8365 108.561 44.8712 108.925C44.9078 109.322 45.0475 109.483 45.4375 109.569C45.8106 109.651 46.1912 109.699 46.5897 109.766L46.6234 110.073C46.6365 110.791 46.5615 110.844 45.865 110.841C44.2384 110.835 42.6119 110.845 40.9862 110.863C40.7303 110.866 40.6215 110.786 40.6281 110.536L40.6244 110.43C40.5822 109.784 40.6009 109.759 41.2122 109.654L41.5009 109.596C42.1628 109.447 42.3325 109.271 42.3419 108.599C42.3728 106.47 42.384 104.341 42.4056 102.212C42.4084 101.907 42.2931 101.67 42.0081 101.543C41.6081 101.368 41.2059 101.198 40.8015 101.033C40.5784 100.941 40.3234 100.883 40.315 100.575C40.3094 100.357 40.5419 100.165 40.8597 100.1C41.4981 99.9709 42.1422 99.8631 42.7731 99.7046C43.4012 99.5481 44.0181 99.3381 44.7062 99.1318Z" fill="#4F372B"/>
<path fill-rule="evenodd" clip-rule="evenodd" d="M79.8765 104.693C79.8465 106.682 79.33 108.29 77.9237 109.496C76.1425 111.027 73.3637 111.547 71.0922 110.403C70.1228 109.914 69.4103 109.165 68.9462 108.193C68.2347 106.698 68.0565 105.125 68.4278 103.515C68.7953 101.922 69.76 100.768 71.2037 100.021C72.6887 99.253 74.2525 98.953 75.9015 99.3561C77.9875 99.8651 79.4865 101.566 79.7847 103.731C79.8381 104.111 79.8587 104.495 79.8765 104.693ZM77.4606 105.77L77.38 105.761C77.38 105.574 77.3903 105.386 77.3781 105.199C77.3097 104.03 77.0472 102.918 76.3703 101.94C75.7281 101.014 74.8534 100.467 73.7153 100.387C72.4412 100.297 71.3706 101.01 70.9947 102.311C70.4303 104.265 70.6215 106.169 71.6134 107.959C72.0456 108.739 72.6859 109.314 73.5437 109.617C75.2247 110.209 76.7153 109.443 77.1531 107.721C77.3144 107.086 77.3612 106.421 77.4606 105.77Z" fill="#4F382B"/>
<path fill-rule="evenodd" clip-rule="evenodd" d="M38.5834 104.847C38.5487 106.274 38.2122 107.593 37.3309 108.739C36.3869 109.967 35.0894 110.624 33.6137 110.9C31.8691 111.227 30.2303 110.93 28.8287 109.759C28.1631 109.202 27.7084 108.489 27.4084 107.677C26.9162 106.346 26.7934 104.982 27.0962 103.592C27.4197 102.104 28.2597 100.967 29.5619 100.203C31.0675 99.3231 32.6922 98.9303 34.4275 99.3259C36.6587 99.8359 37.9469 101.29 38.4231 103.491C38.5187 103.936 38.5319 104.395 38.5834 104.847ZM36.1403 105.788L36.0756 105.779V105.511C36.0391 104.202 35.7831 102.955 35.0022 101.867C34.4237 101.06 33.6494 100.554 32.6566 100.412C31.0384 100.182 29.9809 101.142 29.6303 102.446C29.1728 104.149 29.3162 105.832 30.0241 107.447C30.4656 108.454 31.1631 109.239 32.2347 109.62C33.9053 110.213 35.4184 109.427 35.8412 107.713C35.9969 107.086 36.0437 106.431 36.1403 105.788Z" fill="#4F372B"/>
<path fill-rule="evenodd" clip-rule="evenodd" d="M77.53 32.106C78.6803 35.4313 79.5072 38.826 79.78 42.3435C80.1175 46.7085 79.9637 51.0435 79.0431 55.3363L78.925 55.6794C78.6362 55.6803 78.3419 55.6438 78.0597 55.6878C75.6756 56.0628 73.2944 56.451 70.9122 56.8372C68.4494 57.2366 65.9847 57.62 63.5265 58.0456C62.6556 58.1956 61.5775 58.0166 61.2259 59.2203L61.0572 59.2775L61.1762 52.0794L61.0553 34.7113L62.2028 34.5144C64.0787 34.2078 65.9547 33.8956 67.8334 33.5966C70.074 33.2413 72.3165 32.8944 74.559 32.5475C75.549 32.3956 76.54 32.2541 77.53 32.106Z" fill="#439934"/>
<path fill-rule="evenodd" clip-rule="evenodd" d="M58.689 80.2627C57.4787 79.2221 56.2262 78.2274 55.0665 77.1324C48.8247 71.2449 44.2581 64.314 42.009 55.958C41.3894 53.6593 40.9769 51.3221 40.8437 48.9465C40.75 47.2834 40.6159 45.6062 40.734 43.9515C41.0462 39.5518 41.6828 35.1943 42.9728 30.9559L43.044 30.8574C43.1697 31.0243 43.3497 31.1724 43.4134 31.3609C44.6734 35.0696 45.9231 38.7821 47.1672 42.4974C51.0756 54.1702 54.9794 65.8459 58.8944 77.5168C58.9712 77.7446 59.169 77.9312 59.3115 78.1365L58.689 80.2627Z" fill="#45A538"/>
<path fill-rule="evenodd" clip-rule="evenodd" d="M77.53 32.1063C76.5391 32.2535 75.5481 32.396 74.5591 32.5479C72.3166 32.8947 70.074 33.2416 67.8334 33.5969C65.9556 33.895 64.0797 34.2072 62.2028 34.5147L61.0553 34.7116L61.0459 33.9635C61.0075 33.3485 60.9437 32.7335 60.9353 32.1185L60.8069 20.3491C60.7769 17.8938 60.7319 15.4385 60.6822 12.9841C60.6569 11.4586 60.6128 9.9335 60.55 8.4091C60.5125 7.59066 60.3803 6.77598 60.3278 5.95754C60.2969 5.48691 60.3381 5.01254 60.3484 4.54004C60.9334 5.67348 61.5062 6.81535 62.1072 7.94035C63.0569 9.71879 64.5709 11.0294 65.935 12.4591C71.3219 18.1132 75.1459 24.6832 77.53 32.1063Z" fill="#46A037"/>
<path fill-rule="evenodd" clip-rule="evenodd" d="M61.0581 59.278L61.2269 59.2208C61.5784 58.017 62.6565 58.1961 63.5275 58.0461C65.9856 57.6205 68.4503 57.237 70.9131 56.8377C73.2953 56.4524 75.6765 56.0642 78.0606 55.6883C78.3428 55.6442 78.6372 55.6808 78.9259 55.6799C78.4806 57.2699 78.13 58.8945 77.5647 60.4405C76.9225 62.1936 76.1462 63.9055 75.3222 65.5836C74.0877 68.0861 72.5605 70.4332 70.7725 72.5755C69.3981 74.2274 67.8662 75.7564 66.3315 77.2648C65.4822 78.0983 64.4828 78.778 63.5509 79.528L63.309 79.363L62.44 78.6205L61.5409 76.648C60.9266 74.3478 60.5914 71.982 60.5425 69.6017L60.5594 69.2005L60.6822 67.4624C60.7225 66.8689 60.7769 66.2764 60.8022 65.683C60.8922 63.5492 60.9728 61.4136 61.0581 59.278Z" fill="#409433"/>
<path fill-rule="evenodd" clip-rule="evenodd" d="M61.0581 59.278C60.9737 61.4136 60.8931 63.5502 60.8022 65.6858C60.7768 66.2802 60.7234 66.8727 60.6822 67.4652L60.1347 67.6724C58.9178 64.0902 57.7 60.5455 56.5093 56.9924C54.5397 51.1133 52.5943 45.2258 50.6275 39.3449C49.0392 34.5986 47.4398 29.8561 45.8293 25.1174C45.7534 24.8961 45.5378 24.7217 45.3878 24.5258L48.894 18.0786C49.015 18.2877 49.1734 18.4836 49.2493 18.7086C50.8712 23.5086 52.4903 28.3096 54.0953 33.1152C56.184 39.3683 58.2587 45.6242 60.3456 51.8783C60.429 52.1277 60.5659 52.3583 60.6972 52.6386L61.1772 52.0799L61.0581 59.278Z" fill="#4FAA41"/>
<path fill-rule="evenodd" clip-rule="evenodd" d="M45.3869 24.5254C45.5378 24.7213 45.7534 24.8957 45.8284 25.117C47.439 29.8557 49.0384 34.5982 50.6266 39.3445C52.5934 45.2254 54.5387 51.1129 56.5084 56.992C57.6991 60.5451 58.9169 64.0888 60.1337 67.672L60.6812 67.4648L60.5584 69.2029L60.4469 69.6032C60.2566 71.5054 60.0962 73.4113 59.8637 75.3098C59.7475 76.2613 59.4991 77.1951 59.3106 78.1363C59.1691 77.931 58.9703 77.7445 58.8934 77.5166C54.9775 65.8457 51.0747 54.1701 47.1662 42.4973C45.9227 38.7825 44.6715 35.0703 43.4125 31.3607C43.3487 31.1723 43.1687 31.0241 43.0431 30.8573L45.3869 24.5254Z" fill="#4AA73C"/>
<path fill-rule="evenodd" clip-rule="evenodd" d="M61.1763 52.0795L60.6962 52.6383C60.565 52.3579 60.4281 52.1273 60.3447 51.8779C58.2578 45.6239 56.1831 39.3679 54.0944 33.1148C52.4875 28.3098 50.8722 23.5076 49.2484 18.7083C49.1725 18.4833 49.0141 18.2873 48.8931 18.0783L53.2291 12.3745C53.3659 12.5564 53.5609 12.7186 53.6312 12.9239C54.835 16.4489 56.0275 19.9767 57.2144 23.5073C58.3225 26.8054 59.4138 30.1073 60.535 33.3998C60.61 33.6201 60.8716 33.7758 61.0459 33.9633L61.0553 34.7114L61.1763 52.0795Z" fill="#57AE47"/>
<path fill-rule="evenodd" clip-rule="evenodd" d="M61.0459 33.9633C60.8706 33.7767 60.61 33.6211 60.535 33.3998C59.4147 30.1073 58.3225 26.8055 57.2144 23.5073C56.0284 19.9767 54.834 16.4489 53.6312 12.9239C53.5609 12.7186 53.3659 12.5564 53.2291 12.3745C54.6391 10.9936 56.005 9.56296 57.4722 8.24577C58.7762 7.07577 59.8244 5.8214 59.8731 3.97171L59.9763 3.60327L60.3475 4.5389C60.3381 5.0114 60.2959 5.48577 60.3269 5.9564C60.3803 6.77483 60.5125 7.58952 60.5491 8.40796C60.6175 9.9314 60.6503 11.4576 60.6813 12.983C60.7309 15.4373 60.7759 17.8926 60.8059 20.348L60.9344 32.1173C60.9438 32.7333 61.0084 33.3483 61.0459 33.9633Z" fill="#60B24F"/>
<path fill-rule="evenodd" clip-rule="evenodd" d="M59.3115 78.1354C59.5 77.1941 59.7484 76.2604 59.8647 75.3088C60.0972 73.4113 60.2575 71.5044 60.4478 69.6022L60.4956 69.5947L60.5425 69.6032C60.5914 71.9835 60.9266 74.3492 61.5409 76.6494C61.4144 76.8163 61.2372 76.9635 61.1697 77.151C60.6494 78.6191 60.1581 80.0994 59.635 81.5666C59.5637 81.7672 59.3631 81.9238 59.2234 82.0991L58.6881 80.2616L59.3115 78.1354Z" fill="#A9AA88"/>
<path fill-rule="evenodd" clip-rule="evenodd" d="M59.2234 82.1001C59.3631 81.9238 59.5637 81.7682 59.635 81.5676C60.1581 80.1004 60.6494 78.6201 61.1697 77.152C61.2362 76.9645 61.4144 76.8173 61.5409 76.6504L62.44 78.6229C62.2628 78.8741 62.0172 79.102 61.9187 79.3823L60.1975 84.4373C60.1262 84.6407 59.8853 84.7832 59.7222 84.9548L59.2234 82.1001Z" fill="#B6B598"/>
<path fill-rule="evenodd" clip-rule="evenodd" d="M59.7222 84.9539C59.8844 84.7824 60.1262 84.6399 60.1975 84.4364L61.9187 79.3814C62.0162 79.1011 62.2628 78.8733 62.44 78.6221L63.31 79.3636C62.89 79.7789 62.6565 80.2589 62.7972 80.8655L62.5328 81.7308C62.4128 81.8789 62.2384 82.0083 62.1794 82.178C61.5784 83.8993 61.0056 85.6299 60.4 87.3502C60.3231 87.5677 60.1103 87.7393 59.9612 87.9324L59.7222 84.9539Z" fill="#C2C1A7"/>
<path fill-rule="evenodd" clip-rule="evenodd" d="M59.9603 87.9315C60.1103 87.7384 60.3231 87.5669 60.3991 87.3494C61.0047 85.629 61.5784 83.8984 62.1784 82.1772C62.2375 82.0075 62.4119 81.879 62.5319 81.73L62.1672 85.7012C62.0697 85.8137 61.9291 85.9122 61.8822 86.0425L60.6691 89.5187C60.5838 89.7559 60.4206 89.9678 60.2931 90.19C60.1797 90.0419 59.9772 89.8984 59.9678 89.7447C59.9322 89.1428 59.9575 88.5362 59.9603 87.9315Z" fill="#CECDB7"/>
<path fill-rule="evenodd" clip-rule="evenodd" d="M60.2941 90.1909C60.4216 89.9687 60.5847 89.7568 60.67 89.5197L61.8831 86.0434C61.93 85.9122 62.0716 85.8146 62.1681 85.7021L62.1775 88.3084L61.3047 90.5462L60.2941 90.1909Z" fill="#DBDAC7"/>
<path fill-rule="evenodd" clip-rule="evenodd" d="M61.3047 90.5464L62.1775 88.3086L62.3575 90.9561L61.3047 90.5464Z" fill="#EBE9DC"/>
<path fill-rule="evenodd" clip-rule="evenodd" d="M62.7963 80.8656C62.6566 80.26 62.8891 79.78 63.3091 79.3638L63.5509 79.5288L62.7963 80.8656Z" fill="#CECDB7"/>
<path fill-rule="evenodd" clip-rule="evenodd" d="M60.5425 69.6044L60.4956 69.5959L60.4478 69.6034L60.5594 69.2031L60.5425 69.6044Z" fill="#4FAA41"/>
</svg>
