<svg width="106" height="121" viewBox="0 0 106 121" fill="none" xmlns="http://www.w3.org/2000/svg">
<g clip-path="url(#clip0_332_4841)">
<path d="M59.2778 44.5501L52.2222 64.3627H63.0515L66.0461 72.977H49.5969L46.7666 80.7709H35.8553L53.2888 34.7052H65.3488L82.7413 80.8119H71.83L59.2778 44.5498V44.5501ZM104.44 99.0245C106.793 96.0526 102.849 92.9413 100.659 95.7772C66.8376 138.399 -5.10033 108.185 6.62147 47.8564C15.8805 8.24422 62.7437 -7.23742 93.1211 17.795C92.1719 20.4615 93.0559 23.6966 95.7789 25.2983C99.8172 27.6734 104.892 24.6882 104.892 19.9379C104.892 15.5021 100.468 12.6071 96.5936 14.1765C63.4644 -13.5264 12.0257 3.33266 1.89038 46.6937C-11.9017 104.654 60.6906 148.863 104.44 99.0247V99.0245Z" fill="black"/>
</g>
<defs>
<clipPath id="clip0_332_4841">
<rect width="105" height="120" fill="white" transform="translate(0.174988 0.658691)"/>
</clipPath>
</defs>
</svg>
