<svg width="107" height="121" viewBox="0 0 107 121" fill="none" xmlns="http://www.w3.org/2000/svg">
<g clip-path="url(#clip0_332_4934)">
<path d="M53.4719 120.436C51.8213 120.436 50.2809 119.996 48.8504 119.226L34.215 110.533C32.0143 109.322 33.1146 108.882 33.7748 108.662C36.7458 107.672 37.2959 107.452 40.3769 105.691C40.7074 105.471 41.1476 105.581 41.4773 105.801L52.7016 112.513C53.1418 112.733 53.6919 112.733 54.022 112.513L97.9279 87.0944C98.3681 86.8744 98.5881 86.4342 98.5881 85.8841V35.1556C98.5881 34.6054 98.3681 34.1653 97.9279 33.9452L54.022 8.63603C53.5819 8.41596 53.0317 8.41596 52.7016 8.63603L8.79574 33.9456C8.3556 34.1657 8.13553 34.7159 8.13553 35.156V85.8841C8.13553 86.3242 8.3556 86.8744 8.79574 87.0944L20.7903 94.0266C27.2828 97.3277 31.3537 93.4764 31.3537 89.6252V39.557C31.3537 38.8968 31.9043 38.2366 32.6745 38.2366H38.2867C38.9469 38.2366 39.6071 38.7868 39.6071 39.557V89.6248C39.6071 98.318 34.8752 103.38 26.6222 103.38C24.0914 103.38 22.1108 103.38 16.499 100.629L4.94453 94.0266C2.08363 92.3757 0.323074 89.2947 0.323074 85.9937V35.2661C0.323074 31.965 2.08363 28.8841 4.94453 27.2331L48.8504 1.8143C51.6013 0.273814 55.3425 0.273814 58.0933 1.8143L101.999 27.2331C104.86 28.8836 106.621 31.9646 106.621 35.2661V85.9941C106.621 89.2951 104.86 92.3761 101.999 94.0266L58.0933 119.446C56.6629 120.106 55.0123 120.437 53.4719 120.437V120.436ZM67.0065 85.5535C47.7496 85.5535 43.7884 76.7508 43.7884 69.268C43.7884 68.6078 44.3386 67.9476 45.1088 67.9476H50.8306C51.4908 67.9476 52.0414 68.3877 52.0414 69.0479C52.9217 74.8798 55.4525 77.7411 67.1166 77.7411C76.3599 77.7411 80.3215 75.6504 80.3215 70.6989C80.3215 67.8376 79.2212 65.7469 64.8058 64.316C52.8117 63.1057 45.3289 60.4648 45.3289 50.8918C45.3289 41.9782 52.8112 36.6965 65.356 36.6965C79.4409 36.6965 86.3735 41.538 87.2537 52.1018C87.2537 52.4319 87.1437 52.762 86.9236 53.0921C86.7036 53.3122 86.3735 53.5322 86.0434 53.5322H80.3215C79.771 53.5322 79.2212 53.0921 79.1108 52.5419C77.7903 46.49 74.3793 44.5094 65.356 44.5094C55.2328 44.5094 54.022 48.0305 54.022 50.6713C54.022 53.8627 55.4525 54.8526 69.0972 56.6132C82.6323 58.3737 89.0143 60.905 89.0143 70.3684C88.9043 80.0518 80.9818 85.5535 67.0065 85.5535Z" fill="#539E43"/>
</g>
<defs>
<clipPath id="clip0_332_4934">
<rect width="106.312" height="120" fill="white" transform="translate(0.315613 0.658691)"/>
</clipPath>
</defs>
</svg>
