<svg width="126" height="121" viewBox="0 0 126 121" fill="none" xmlns="http://www.w3.org/2000/svg">
<g clip-path="url(#clip0_332_4947)">
<path d="M87.2794 84.1339C91.9255 83.653 95.4503 79.6477 95.2899 74.8408C95.1301 70.0344 91.1244 66.189 86.318 66.189H85.9978C81.0306 66.3493 77.1857 70.5149 77.346 75.4816C77.5063 77.8851 78.4673 79.9679 79.9093 81.4098C74.4621 92.1449 66.1309 99.9956 53.6342 106.565C45.1427 111.051 36.3311 112.653 27.5195 111.532C20.3096 110.57 14.7021 107.366 11.1768 102.078C6.05028 94.2277 5.56979 85.7357 9.89569 77.2443C12.9399 71.1557 17.7459 66.6695 20.7901 64.4264C20.1493 62.3436 19.1878 58.8189 18.7073 56.2556C-4.52398 73.0787 -2.12054 95.83 4.92897 106.565C10.2159 114.576 20.9504 119.543 32.8063 119.543C36.0104 119.543 39.2145 119.222 42.4191 118.421C62.9268 114.416 78.4678 102.239 87.2794 84.1339ZM115.477 64.2666C103.301 50.0067 85.357 42.1561 64.8493 42.1561H62.286C60.844 39.2721 57.7998 37.3492 54.4354 37.3492H54.1147C49.1485 37.5095 45.3036 41.6751 45.4634 46.6423C45.6237 51.4487 49.629 55.2941 54.4354 55.2941H54.7555C58.2803 55.1338 61.3245 52.8907 62.6062 49.8464H65.4901C77.6667 49.8464 89.2019 53.3712 99.6163 60.2608C107.627 65.5482 113.395 72.4379 116.599 80.769C119.322 87.4984 119.162 94.0674 116.278 99.6754C111.792 108.167 104.262 112.813 94.329 112.813C87.9203 112.813 81.8322 110.89 78.6276 109.449C76.8655 111.051 73.6609 113.614 71.4178 115.217C78.3075 118.421 85.357 120.184 92.0858 120.184C107.466 120.184 118.842 111.692 123.168 103.2C127.814 93.9071 127.493 77.8851 115.477 64.2666ZM34.088 86.857C34.2483 91.6639 38.2536 95.5089 43.0599 95.5089H43.3806C48.3473 95.349 52.1922 91.1829 52.0319 86.2162C51.8721 81.4093 47.8663 77.5644 43.0599 77.5644H42.7398C42.4191 77.5644 41.9381 77.5644 41.6185 77.7243C35.0495 66.8293 32.3258 54.9734 33.2873 42.1556C33.9277 32.5423 37.1322 24.2107 42.7398 17.321C47.3858 11.3928 56.3578 8.50885 62.4463 8.34902C79.4288 8.02836 86.6381 29.1774 87.1191 37.6693C89.2019 38.1498 92.7267 39.2716 95.1301 40.0728C93.2072 14.1174 77.1857 0.658691 61.8055 0.658691C47.3858 0.658691 34.088 11.0731 28.8006 26.4543C21.4309 46.9625 26.2373 66.6695 35.2093 82.211C34.4086 83.3323 33.9277 85.0944 34.088 86.857Z" fill="#764ABC"/>
</g>
<defs>
<clipPath id="clip0_332_4947">
<rect width="125.925" height="120" fill="white" transform="translate(0.03125 0.658691)"/>
</clipPath>
</defs>
</svg>
