<svg width="202" height="121" viewBox="0 0 202 121" fill="none" xmlns="http://www.w3.org/2000/svg">
<g clip-path="url(#clip0_332_4845)">
<path d="M57.7796 44.1395C57.7796 46.5999 58.0463 48.5944 58.5114 50.0571C59.1019 51.7028 59.8128 53.3026 60.6385 54.8438C60.971 55.3755 61.1035 55.9073 61.1035 56.3732C61.1035 57.0375 60.7051 57.7026 59.8408 58.3677L55.6526 61.1599C55.0541 61.5591 54.4557 61.7583 53.9232 61.7583C53.2588 61.7583 52.5938 61.4257 51.9286 60.8273C51.033 59.8646 50.2316 58.8183 49.5357 57.7026C48.8706 56.5732 48.2055 55.3089 47.4745 53.7802C42.2887 59.8963 35.7726 62.9551 27.9279 62.9551C22.3436 62.9551 17.8887 61.3591 14.6306 58.1685C11.3734 54.9763 9.7114 50.7214 9.7114 45.403C9.7114 39.752 11.7059 35.1646 15.7616 31.7073C19.8165 28.25 25.2024 26.5214 32.0502 26.5214C34.3106 26.5214 36.6377 26.7206 39.0973 27.0532C41.5577 27.3857 44.0839 27.9175 46.7436 28.5159V23.6626C46.7436 18.6093 45.6792 15.0861 43.6181 13.025C41.491 10.9638 37.9004 9.96613 32.7812 9.96613C30.4541 9.96613 28.0612 10.2328 25.6008 10.8312C23.1412 11.4289 20.7475 12.1606 18.4204 13.0916C17.3569 13.5567 16.5592 13.8226 16.0934 13.9559C15.6283 14.0893 15.2957 14.1551 15.0298 14.1551C14.0988 14.1551 13.6337 13.49 13.6337 12.094V8.83593C13.6337 7.7724 13.7671 6.97475 14.0988 6.50966C14.4314 6.04377 15.0298 5.57868 15.9608 5.11358C18.2879 3.91671 21.08 2.91907 24.3373 2.12142C27.5961 1.25711 31.0534 0.858675 34.7098 0.858675C42.622 0.858675 48.4063 2.65318 52.1294 6.24377C55.7859 9.83358 57.6479 15.2853 57.6479 22.5991V44.1395H57.7812H57.7796ZM30.7867 54.2453C32.9812 54.2453 35.2416 53.8469 37.6345 53.0485C40.0283 52.2508 42.1561 50.7881 43.9506 48.7936C45.0149 47.5308 45.8126 46.1348 46.211 44.5387C46.6102 42.9434 46.8761 41.0148 46.8761 38.7544V35.9622C44.8599 35.4715 42.8177 35.0941 40.7592 34.832C38.6865 34.5687 36.5993 34.4354 34.5098 34.4328C30.0549 34.4328 26.7977 35.2971 24.6039 37.0924C22.4094 38.8877 21.3459 41.414 21.3459 44.7379C21.3459 47.8626 22.1436 50.1897 23.8055 51.7857C25.4016 53.4477 27.7287 54.2453 30.7867 54.2453ZM84.1741 61.4257C82.9773 61.4257 82.1796 61.2265 81.6479 60.7606C81.1161 60.3622 80.6502 59.4312 80.2518 58.1685L64.6283 6.77554C64.2283 5.44534 64.029 4.58103 64.029 4.11593C64.029 3.0524 64.5608 2.45318 65.6251 2.45318H72.1404C73.4032 2.45318 74.2683 2.65318 74.7334 3.11828C75.2651 3.5175 75.6643 4.44848 76.0628 5.71122L87.2322 49.7246L97.604 5.71122C97.9365 4.38181 98.3357 3.5175 98.8667 3.11828C99.3992 2.71985 100.33 2.45397 101.527 2.45397H106.846C108.108 2.45397 108.973 2.65318 109.504 3.11828C110.037 3.5175 110.502 4.44848 110.768 5.71122L121.273 50.2563L132.774 5.71122C133.173 4.38181 133.638 3.5175 134.104 3.11828C134.635 2.71985 135.5 2.45397 136.697 2.45397H142.879C143.944 2.45397 144.542 2.98573 144.542 4.11593C144.542 4.44848 144.475 4.78103 144.409 5.17946C144.342 5.57868 144.209 6.11044 143.944 6.8422L127.92 58.2344C127.522 59.5646 127.056 60.4289 126.524 60.8273C125.992 61.2265 125.128 61.4924 123.998 61.4924H118.281C117.017 61.4924 116.153 61.2932 115.62 60.8273C115.089 60.3622 114.624 59.4979 114.358 58.1685L104.052 15.2853L93.8134 58.101C93.4816 59.4312 93.0824 60.2955 92.5506 60.7606C92.0188 61.2265 91.0879 61.4257 89.8918 61.4257H84.1734H84.1741ZM169.607 63.221C166.15 63.221 162.693 62.8218 159.369 62.0242C156.044 61.2265 153.452 60.3614 151.723 59.3653C150.659 58.7661 149.927 58.1018 149.662 57.5034C149.403 56.9165 149.267 56.2828 149.263 55.6414V52.2508C149.263 50.8548 149.795 50.1897 150.792 50.1897C151.199 50.1912 151.604 50.2587 151.989 50.3897C152.387 50.523 152.986 50.7881 153.651 51.054C155.999 52.0868 158.451 52.8669 160.964 53.381C163.568 53.9095 166.219 54.1768 168.876 54.1787C173.064 54.1787 176.322 53.4477 178.583 51.985C180.843 50.5222 182.04 48.3951 182.04 45.6689C182.04 43.8077 181.442 42.2783 180.245 41.0148C179.048 39.752 176.787 38.6218 173.53 37.5575L163.889 34.5661C159.036 33.0367 155.446 30.7763 153.252 27.7842C151.058 24.8587 149.928 21.6014 149.928 18.1442C149.928 15.352 150.526 12.8916 151.723 10.7638C152.919 8.63671 154.515 6.77554 156.51 5.31279C158.504 3.78338 160.765 2.65318 163.424 1.85554C166.083 1.05789 168.875 0.725342 171.801 0.725342C173.264 0.725342 174.793 0.792008 176.256 0.991224C177.785 1.19044 179.181 1.45632 180.577 1.7222C181.907 2.05475 183.17 2.3873 184.367 2.78652C185.564 3.18495 186.494 3.58417 187.159 3.9826C188.09 4.51515 188.755 5.04691 189.154 5.64534C189.553 6.17711 189.752 6.90809 189.752 7.83907V10.9638C189.752 12.3599 189.22 13.0916 188.223 13.0916C187.691 13.0916 186.827 12.8249 185.697 12.2932C181.907 10.5646 177.652 9.70024 172.932 9.70024C169.142 9.70024 166.15 10.2987 164.089 11.5622C162.028 12.825 160.964 14.7536 160.964 17.4791C160.964 19.341 161.629 20.9363 162.958 22.1999C164.289 23.4626 166.748 24.7261 170.272 25.8563L179.713 28.8485C184.5 30.3779 187.957 32.5049 190.018 35.2304C192.079 37.9567 193.077 41.0814 193.077 44.5387C193.077 47.3975 192.478 49.9904 191.347 52.2508C190.151 54.5112 188.555 56.5057 186.494 58.1018C184.433 59.7638 181.973 60.9606 179.115 61.825C176.122 62.7559 172.998 63.221 169.607 63.221Z" fill="#252F3E"/>
<path d="M182.173 95.5324C160.3 111.688 128.519 120.265 101.195 120.265C62.8988 120.265 28.3937 106.103 2.33177 82.5677C0.270589 80.7065 2.13177 78.1803 4.59137 79.6422C32.7812 95.9983 67.5529 105.904 103.522 105.904C127.788 105.904 154.449 100.852 178.982 90.4799C182.638 88.8171 185.763 92.8736 182.173 95.5324ZM191.282 85.1606C188.489 81.5708 172.798 83.432 165.685 84.2963C163.557 84.563 163.224 82.701 165.153 81.305C177.652 72.5285 198.196 75.0555 200.589 77.9803C202.983 80.9724 199.924 101.516 188.223 111.356C186.428 112.885 184.7 112.088 185.497 110.093C188.156 103.51 194.074 88.6846 191.282 85.1606Z" fill="#FF9900"/>
</g>
<defs>
<clipPath id="clip0_332_4845">
<rect width="200.812" height="120" fill="white" transform="translate(0.987488 0.658691)"/>
</clipPath>
</defs>
</svg>
