<svg width="161" height="121" viewBox="0 0 161 121" fill="none" xmlns="http://www.w3.org/2000/svg">
<g clip-path="url(#clip0_332_4949)">
<path d="M138.638 69.7298C133.072 69.7586 128.234 71.0992 124.183 73.0811C122.696 70.1373 121.21 67.5148 120.948 65.5911C120.656 63.3473 120.307 61.9773 120.656 59.2961C121.006 56.6148 122.58 52.7967 122.551 52.5055C122.522 52.2142 122.201 50.8442 118.995 50.8154C115.789 50.7861 113.021 51.4273 112.7 52.2723C112.379 53.1173 111.767 55.0411 111.359 57.0223C110.806 59.9373 104.948 70.3411 101.597 75.7911C100.518 73.6642 99.5856 71.7986 99.3812 70.3123C99.09 68.0686 98.74 66.6986 99.09 64.0173C99.44 61.3361 101.014 57.5186 100.984 57.2267C100.955 56.9355 100.634 55.5654 97.4287 55.5367C94.2225 55.5073 91.4537 56.1486 91.1337 56.9936C90.8131 57.8392 90.4631 59.8204 89.7931 61.7442C89.1225 63.6679 81.3412 81.0379 79.3012 85.5254C78.4768 87.3418 77.612 89.1395 76.7075 90.9173C76.7075 90.9173 76.6781 91.0048 76.5906 91.1504C76.3064 91.7079 76.0152 92.2617 75.7169 92.8117V92.8404C75.2794 93.6279 74.8131 94.3561 74.58 94.3561C74.405 94.3561 74.0844 92.2579 74.6381 89.4017C75.8037 83.3692 78.5725 73.9848 78.5437 73.6642C78.5437 73.4892 79.0681 71.8573 76.7369 71.0117C74.4631 70.1667 73.6475 71.5654 73.4431 71.5654C73.2394 71.5654 73.0931 72.0611 73.0931 72.0611C73.0931 72.0611 75.6294 61.5111 68.2556 61.5111C63.6512 61.5111 57.2975 66.5529 54.15 71.0992C50.5719 73.0463 46.9969 74.999 43.425 76.9573C41.7062 77.9192 39.9281 78.8811 38.2669 79.7842C38.15 79.6679 38.0337 79.5217 37.9169 79.4054C28.9987 69.8755 12.5037 63.1429 13.2031 50.3492C13.4656 45.6861 15.0681 33.4454 44.8825 18.5823C69.4212 6.48732 88.9481 9.83857 92.3287 17.2704C97.1662 27.8792 81.8662 47.5804 56.5106 50.4361C46.835 51.5148 41.7637 47.7842 40.4819 46.3855C39.1412 44.928 38.9369 44.8404 38.4412 45.1323C37.6256 45.5698 38.15 46.8811 38.4412 47.6386C39.1994 49.6198 42.3175 53.1173 47.5925 54.8373C52.2556 56.3523 63.5925 57.1979 77.3194 51.8936C92.6781 45.9479 104.686 29.4236 101.159 15.5804C97.6325 1.53295 74.3175 -3.1008 52.2556 4.73857C39.1412 9.40232 24.9187 16.7461 14.6893 26.3054C2.53622 37.6711 0.612474 47.5511 1.39935 51.6898C4.22685 66.378 24.4819 75.9373 32.5837 83.0192C32.1756 83.2523 31.7962 83.4567 31.4762 83.6317C27.425 85.6423 11.9787 93.7148 8.13185 102.254C3.7606 111.93 8.83185 118.867 12.1831 119.799C22.5875 122.684 33.2831 117.497 39.0244 108.928C44.7656 100.36 44.0662 89.2267 41.4144 84.1267C41.385 84.0686 41.3562 84.0098 41.2975 83.9517C42.3469 83.3398 43.425 82.6986 44.4744 82.0867C46.403 80.9466 48.3562 79.8484 50.3325 78.7929C49.3412 81.5036 48.6125 84.7386 48.2631 89.4017C47.8256 94.8811 50.0694 101.992 53.0131 104.789C54.325 106.014 55.8694 106.043 56.8606 106.043C60.2994 106.043 61.8444 103.187 63.5637 99.8061C65.6619 95.6679 67.5562 90.8592 67.5562 90.8592C67.5562 90.8592 65.1956 103.857 71.6075 103.857C73.9387 103.857 76.2994 100.826 77.3487 99.2817V99.3104C77.3487 99.3104 77.4069 99.2229 77.5237 99.0192C77.7569 98.6404 77.9025 98.4067 77.9025 98.4067V98.3492C78.835 96.7167 80.9337 93.0154 84.0519 86.8661C88.0737 78.9392 91.95 69.0304 91.95 69.0304C91.95 69.0304 92.3 71.4492 93.4944 75.4711C94.1944 77.8317 95.6506 80.4254 96.8169 82.9317C95.8844 84.2436 95.3012 84.9717 95.3012 84.9717L95.3306 85.0011C94.5725 85.9917 93.7569 87.0698 92.8531 88.1198C89.6762 91.9079 85.8881 96.2511 85.3631 97.5036C84.7506 98.9898 84.8969 100.069 86.0631 100.943C86.9081 101.584 88.4231 101.671 89.9681 101.584C92.8244 101.38 94.835 100.68 95.8256 100.244C97.3706 99.6898 99.1775 98.8442 100.867 97.5911C103.986 95.2886 105.88 91.9954 105.706 87.6536C105.618 85.2636 104.831 82.8736 103.869 80.6292C104.161 80.2217 104.423 79.8136 104.715 79.4054C109.64 72.2067 113.458 64.3086 113.458 64.3086C113.458 64.3086 113.808 66.7273 115.002 70.7498C115.586 72.7898 116.781 75.0048 117.829 77.1611C113.196 80.9211 110.339 85.2923 109.319 88.1486C107.484 93.4529 108.911 95.8423 111.622 96.3961C112.846 96.6586 114.594 96.0754 115.877 95.5217C117.509 94.9973 119.432 94.0942 121.269 92.7529C124.387 90.4511 127.389 87.2448 127.214 82.9029C127.126 80.9211 126.602 78.9679 125.873 77.0736C129.807 75.4423 134.879 74.5386 141.348 75.2961C155.221 76.9279 157.961 85.5836 157.436 89.2273C156.911 92.8698 153.997 94.8517 153.036 95.4636C152.073 96.0761 151.753 96.2798 151.841 96.7167C151.957 97.3579 152.423 97.3292 153.239 97.2123C154.376 97.0086 160.526 94.2686 160.787 87.5654C161.225 78.9973 153.064 69.6423 138.638 69.7298ZM31.6219 105.81C27.0169 110.822 20.6056 112.717 17.8369 111.114C14.8644 109.394 16.03 101.992 21.6837 96.6879C25.1225 93.4529 29.5525 90.4504 32.4962 88.6148C33.1662 88.2067 34.1575 87.6242 35.3525 86.8954C35.5562 86.7786 35.6731 86.7204 35.6731 86.7204L36.3725 86.2829C38.4412 93.8604 36.46 100.535 31.6219 105.81ZM65.1375 83.0192C63.5344 86.9248 60.1831 96.9211 58.1431 96.3673C56.3944 95.9011 55.3156 88.3236 57.7931 80.8336C59.0462 77.0736 61.6981 72.5854 63.2431 70.8373C65.7494 68.0392 68.5181 67.1061 69.1881 68.2436C70.0337 69.7298 66.1281 80.5711 65.1375 83.0192ZM92.795 96.2505C92.1244 96.6004 91.4837 96.8336 91.1919 96.6586C90.9881 96.5417 91.4837 96.0754 91.4837 96.0754C91.4837 96.0754 94.9519 92.3454 96.3212 90.6548C97.1087 89.6642 98.0406 88.4986 99.0319 87.1867V87.5654C99.0319 92.0248 94.7181 95.0267 92.7944 96.2505H92.795ZM114.128 91.3836C113.632 91.0336 113.72 89.868 115.381 86.2248C116.022 84.7967 117.537 82.4073 120.132 80.1048C120.423 81.0373 120.627 81.9411 120.598 82.7861C120.569 88.4111 116.547 90.5092 114.128 91.3836Z" fill="#CD6799"/>
</g>
<defs>
<clipPath id="clip0_332_4949">
<rect width="160.012" height="120" fill="white" transform="translate(0.956238 0.658691)"/>
</clipPath>
</defs>
</svg>
