<svg width="121" height="121" viewBox="0 0 121 121" fill="none" xmlns="http://www.w3.org/2000/svg">
<path d="M60.2188 10.6587C53.6527 10.6587 47.1509 11.952 41.0846 14.4647C35.0183 16.9775 29.5063 20.6604 24.8634 25.3034C15.4866 34.6802 10.2188 47.3979 10.2188 60.6587C10.2188 82.7587 24.5688 101.509 44.4188 108.159C46.9188 108.559 47.7188 107.009 47.7188 105.659V97.2087C33.8688 100.209 30.9188 90.5087 30.9188 90.5087C28.6188 84.7087 25.3688 83.1587 25.3688 83.1587C20.8188 80.0587 25.7188 80.1587 25.7188 80.1587C30.7188 80.5087 33.3688 85.3087 33.3688 85.3087C37.7188 92.9087 45.0688 90.6587 47.9188 89.4587C48.3688 86.2087 49.6688 84.0087 51.0688 82.7587C39.9688 81.5087 28.3188 77.2087 28.3188 58.1587C28.3188 52.6087 30.2188 48.1587 33.4688 44.6087C32.9688 43.3587 31.2188 38.1587 33.9688 31.4087C33.9688 31.4087 38.1688 30.0587 47.7188 36.5087C51.6688 35.4087 55.9688 34.8587 60.2188 34.8587C64.4688 34.8587 68.7688 35.4087 72.7188 36.5087C82.2688 30.0587 86.4688 31.4087 86.4688 31.4087C89.2188 38.1587 87.4688 43.3587 86.9688 44.6087C90.2188 48.1587 92.1188 52.6087 92.1188 58.1587C92.1188 77.2587 80.4188 81.4587 69.2688 82.7087C71.0688 84.2587 72.7188 87.3087 72.7188 91.9587V105.659C72.7188 107.009 73.5188 108.609 76.0688 108.159C95.9188 101.459 110.219 82.7587 110.219 60.6587C110.219 54.0926 108.925 47.5908 106.413 41.5245C103.9 35.4582 100.217 29.9463 95.5741 25.3034C90.9312 20.6604 85.4192 16.9775 79.3529 14.4647C73.2867 11.952 66.7848 10.6587 60.2188 10.6587Z" fill="black"/>
</svg>
