<svg width="111" height="111" viewBox="0 0 111 111" fill="none" xmlns="http://www.w3.org/2000/svg">
<g clip-path="url(#clip0_332_4858)">
<path d="M85.0187 0.658691H26.5812C12.3426 0.658691 0.799988 12.2014 0.799988 26.4399V84.8774C0.799988 99.116 12.3426 110.659 26.5812 110.659H85.0187C99.2573 110.659 110.8 99.116 110.8 84.8774V26.4399C110.8 12.2014 99.2573 0.658691 85.0187 0.658691Z" fill="#242938"/>
<path d="M98.7687 79.2644C97.5179 79.7381 96.1368 79.7372 94.8865 79.2617C93.6363 78.7863 92.6036 77.8693 91.9835 76.6841C88.0893 70.8545 83.789 65.2879 79.6558 59.6019L77.8636 57.2128C72.9419 63.8068 68.0203 70.1378 63.5288 76.7082C62.9438 77.8409 61.9669 78.7224 60.7801 79.1883C59.5934 79.6543 58.2778 79.6729 57.0783 79.2407L75.5463 54.4654L58.3682 32.0787C59.6048 31.6321 60.9575 31.626 62.1981 32.0612C63.4386 32.4965 64.491 33.3465 65.1775 34.4677C69.1671 40.2977 73.5873 45.8643 77.983 51.7657C82.4032 45.912 86.7753 40.3214 90.8608 34.5395C91.449 33.4251 92.4265 32.5659 93.6071 32.1254C94.7877 31.6848 96.0891 31.6938 97.2635 32.1504L90.5978 40.9904C87.6115 44.9323 84.6728 48.8984 81.5671 52.7449C81.3166 52.9689 81.1163 53.2432 80.9791 53.55C80.842 53.8567 80.7711 54.1889 80.7711 54.5249C80.7711 54.8609 80.842 55.1931 80.9791 55.4998C81.1163 55.8065 81.3166 56.0809 81.5671 56.3049C87.2772 63.8785 92.9392 71.4758 98.7687 79.2644ZM12.8312 54.1547C13.3331 51.7657 13.6433 49.1613 14.3364 46.7246C18.4696 32.0314 35.3129 25.9148 46.9003 35.0177C53.6855 40.3458 55.3819 47.8955 55.0476 56.4007H16.8213C16.2 71.5957 27.166 80.77 41.1902 76.0873C43.4651 75.2734 45.5016 73.9059 47.1158 72.1081C48.73 70.3103 49.8711 68.1389 50.4362 65.7898C51.177 63.4007 52.3715 62.9947 54.6411 63.6873C54.2674 66.5959 53.2391 69.3819 51.6335 71.8358C50.028 74.2898 47.887 76.3477 45.3715 77.855C41.2154 80.1279 36.447 81.0284 31.7482 80.4277C27.0494 79.827 22.6609 77.7558 19.2104 74.5103C15.7966 70.672 13.7325 65.8222 13.3331 60.701C13.3331 59.8889 13.0224 59.0764 12.8553 58.3119C12.8395 56.9263 12.8315 55.5405 12.8312 54.1547ZM16.869 53.1273H51.4399C51.2247 42.1136 44.2723 34.301 35.0027 34.2297C24.6816 34.0862 17.2991 41.7312 16.8449 53.0796L16.869 53.1273Z" fill="white"/>
</g>
<defs>
<clipPath id="clip0_332_4858">
<rect width="110" height="110" fill="white" transform="translate(0.799988 0.658691)"/>
</clipPath>
</defs>
</svg>
