<svg width="121" height="121" viewBox="0 0 121 121" fill="none" xmlns="http://www.w3.org/2000/svg">
<path d="M18.1475 85.9562L61.0887 11.5862L64.9437 13.8099L22.0062 88.1837L18.1475 85.9562Z" fill="#E10098"/>
<path d="M17.2625 80.0161H103.145V84.4674H17.2625V80.0161Z" fill="#E10098"/>
<path d="M18.965 82.5138L21.1887 78.6588L64.145 103.461L61.9175 107.316L18.965 82.5138ZM56.2812 17.8713L58.5087 14.02L101.465 38.8225L99.2375 42.6775L56.2812 17.8713Z" fill="#E10098"/>
<path d="M18.9762 38.8113L61.9287 14.0088L64.1562 17.8638L21.2 42.6663L18.9762 38.8113Z" fill="#E10098"/>
<path d="M55.505 13.8137L59.36 11.5862L102.298 85.9599L98.4463 88.1837L55.505 13.8137ZM20.6712 35.8562H25.1225V85.4612H20.6712V35.8562Z" fill="#E10098"/>
<path d="M95.3188 35.8562H99.77V85.4612H95.3188V35.8562Z" fill="#E10098"/>
<path d="M59.2213 102.066L96.5787 80.4961L98.525 83.8636L61.1638 105.434L59.2213 102.066Z" fill="#E10098"/>
<path d="M105.669 86.9088C104.743 88.5166 103.362 89.8138 101.699 90.6361C100.036 91.4585 98.1668 91.769 96.3273 91.5284C94.4879 91.2878 92.7612 90.5069 91.3658 89.2845C89.9704 88.0622 88.969 86.4533 88.4884 84.6615C88.0077 82.8698 88.0695 80.9757 88.6658 79.2191C89.2621 77.4625 90.3661 75.9222 91.8382 74.7933C93.3102 73.6644 95.0841 72.9976 96.9353 72.8773C98.7865 72.757 100.632 73.1886 102.237 74.1175C104.387 75.3607 105.955 77.4056 106.598 79.8036C107.241 82.2016 106.907 84.7569 105.669 86.9088ZM30.9688 43.7838C30.0434 45.3916 28.6619 46.6888 26.9991 47.5111C25.3362 48.3335 23.4668 48.644 21.6273 48.4034C19.7879 48.1628 18.0612 47.3819 16.6658 46.1595C15.2704 44.9372 14.269 43.3283 13.7884 41.5365C13.3077 39.7448 13.3695 37.8507 13.9658 36.0941C14.5621 34.3375 15.6661 32.7972 17.1382 31.6683C18.6102 30.5394 20.3841 29.8726 22.2353 29.7523C24.0865 29.632 25.9317 30.0636 27.5375 30.9925C29.6866 32.2357 31.2548 34.2806 31.8981 36.6786C32.5414 39.0766 32.2071 41.6319 30.9688 43.7838ZM14.7687 86.9088C13.8399 85.303 13.4083 83.4577 13.5286 81.6065C13.6489 79.7553 14.3157 77.9815 15.4446 76.5094C16.5735 75.0374 18.1137 73.9333 19.8703 73.337C21.627 72.7407 23.5211 72.679 25.3128 73.1596C27.1045 73.6403 28.7134 74.6416 29.9358 76.0371C31.1581 77.4325 31.939 79.1592 32.1796 80.9986C32.4202 82.838 32.1097 84.7075 31.2874 86.3703C30.465 88.0332 29.1678 89.4147 27.56 90.34C25.4081 91.5784 22.8529 91.9126 20.4549 91.2694C18.0569 90.6261 16.0119 89.0579 14.7687 86.9088ZM89.4687 43.7838C88.5399 42.178 88.1083 40.3327 88.2286 38.4815C88.3489 36.6303 89.0157 34.8565 90.1446 33.3844C91.2735 31.9124 92.8137 30.8083 94.5704 30.212C96.327 29.6157 98.2211 29.554 100.013 30.0346C101.805 30.5152 103.413 31.5166 104.636 32.9121C105.858 34.3075 106.639 36.0342 106.88 37.8736C107.12 39.713 106.81 41.5825 105.987 43.2453C105.165 44.9082 103.868 46.2897 102.26 47.215C100.108 48.4534 97.5529 48.7876 95.1549 48.1444C92.7569 47.5011 90.7119 45.9329 89.4687 43.7838ZM60.2188 113.159C58.3645 113.159 56.552 112.609 55.0103 111.579C53.4686 110.549 52.2669 109.084 51.5574 107.371C50.8478 105.658 50.6621 103.773 51.0239 101.955C51.3856 100.136 52.2785 98.4657 53.5896 97.1546C54.9007 95.8435 56.5712 94.9506 58.3898 94.5889C60.2083 94.2271 62.0933 94.4128 63.8064 95.1224C65.5195 95.832 66.9836 97.0336 68.0138 98.5753C69.0439 100.117 69.5938 101.93 69.5938 103.784C69.5972 105.016 69.3571 106.237 68.8872 107.376C68.4173 108.514 67.7268 109.549 66.8556 110.421C65.9844 111.292 64.9495 111.982 63.8105 112.452C62.6715 112.922 61.4509 113.162 60.2188 113.159ZM60.2188 26.875C58.3645 26.875 56.552 26.3252 55.0103 25.295C53.4686 24.2649 52.2669 22.8007 51.5574 21.0877C50.8478 19.3746 50.6621 17.4896 51.0239 15.671C51.3856 13.8525 52.2785 12.182 53.5896 10.8709C54.9007 9.55976 56.5712 8.66688 58.3898 8.30514C60.2083 7.94341 62.0933 8.12906 63.8064 8.83863C65.5195 9.54821 66.9836 10.7498 68.0138 12.2915C69.0439 13.8332 69.5938 15.6458 69.5938 17.5C69.5972 18.7321 69.3571 19.9528 68.8872 21.0918C68.4173 22.2307 67.7268 23.2656 66.8556 24.1369C65.9844 25.0081 64.9495 25.6985 63.8105 26.1684C62.6715 26.6383 61.4509 26.8785 60.2188 26.875Z" fill="#E10098"/>
</svg>
