<svg width="24" height="25" viewBox="0 0 24 25" fill="none" xmlns="http://www.w3.org/2000/svg">
<path d="M13.544 10.9561C12.7249 10.1373 11.6141 9.67737 10.456 9.67737C9.29784 9.67737 8.1871 10.1373 7.36799 10.9561L4.27899 14.0441C3.45987 14.8632 2.99969 15.9742 2.99969 17.1326C2.99969 18.291 3.45987 19.402 4.27899 20.2211C5.09811 21.0402 6.20908 21.5004 7.36749 21.5004C8.52591 21.5004 9.63687 21.0402 10.456 20.2211L12 18.6771" stroke="#2F2E2E" stroke-width="1.66667" stroke-linecap="round" stroke-linejoin="round"/>
<path d="M10.456 14.0441C11.2751 14.8628 12.3858 15.3228 13.544 15.3228C14.7021 15.3228 15.8129 14.8628 16.632 14.0441L19.721 10.9561C20.5401 10.1369 21.0003 9.02597 21.0003 7.86755C21.0003 6.70914 20.5401 5.59818 19.721 4.77905C18.9019 3.95993 17.7909 3.49976 16.6325 3.49976C15.4741 3.49976 14.3631 3.95993 13.544 4.77905L12 6.32305" stroke="#2F2E2E" stroke-width="1.66667" stroke-linecap="round" stroke-linejoin="round"/>
</svg>
