<svg width="32" height="32" viewBox="0 0 32 32" fill="none" xmlns="http://www.w3.org/2000/svg">
<path d="M25.996 10.652L16 20.396L6.004 10.652C5.8254 10.4775 5.58565 10.3799 5.336 10.3799C5.08635 10.3799 4.8466 10.4775 4.668 10.652C4.58152 10.7367 4.51282 10.8378 4.46592 10.9494C4.41902 11.0611 4.39487 11.1809 4.39487 11.302C4.39487 11.423 4.41902 11.5429 4.46592 11.6545C4.51282 11.7661 4.58152 11.8672 4.668 11.952L15.302 22.32C15.4887 22.502 15.7392 22.6039 16 22.6039C16.2608 22.6039 16.5113 22.502 16.698 22.32L27.332 11.954C27.4191 11.8692 27.4883 11.7678 27.5356 11.6558C27.5828 11.5438 27.6072 11.4235 27.6072 11.302C27.6072 11.1804 27.5828 11.0601 27.5356 10.9481C27.4883 10.8361 27.4191 10.7348 27.332 10.65C27.1534 10.4755 26.9137 10.3779 26.664 10.3779C26.4143 10.3779 26.1746 10.4755 25.996 10.65V10.652Z" fill="#2F2E2E"/>
</svg>
