<svg width="33" height="33" viewBox="0 0 33 33" fill="none" xmlns="http://www.w3.org/2000/svg">
<path d="M22 29.4407V25.614C22.05 24.9782 21.9641 24.3391 21.748 23.7391C21.5319 23.139 21.1906 22.5919 20.7467 22.134C24.9334 21.6673 29.3334 20.0807 29.3334 12.8007C29.333 10.9391 28.6169 9.14894 27.3334 7.80067C27.9412 6.17201 27.8982 4.3718 27.2134 2.77401C27.2134 2.77401 25.64 2.30734 22 4.74734C18.944 3.9191 15.7227 3.9191 12.6667 4.74734C9.02669 2.30734 7.45335 2.77401 7.45335 2.77401C6.76852 4.3718 6.72555 6.17201 7.33335 7.80067C6.04019 9.15894 5.32338 10.9653 5.33335 12.8407C5.33335 20.0673 9.73335 21.654 13.92 22.174C13.4814 22.6273 13.143 23.1679 12.9271 23.7606C12.7112 24.3532 12.6224 24.9848 12.6667 25.614V29.4407" stroke="#2F2E2E" stroke-width="2" stroke-linecap="round" stroke-linejoin="round"/>
<path d="M12.6667 26.7744C8.66668 28.0717 5.33334 26.7744 3.33334 22.7744" stroke="#2F2E2E" stroke-width="2" stroke-linecap="round" stroke-linejoin="round"/>
</svg>
