<svg width="90" height="90" viewBox="0 0 90 90" fill="none" xmlns="http://www.w3.org/2000/svg">
<rect width="90" height="90" rx="45" fill="#2F2E2E"/>
<path d="M14.2992 63V37.65H19.3992V63H14.2992ZM14.2992 32.5V27.4H19.3992V32.5H14.2992ZM40.3766 37.65H35.2766V36.5C35.2766 35.3333 34.9932 34.3333 34.4266 33.5C33.8932 32.6333 32.9766 32.2 31.6766 32.2C30.9766 32.2 30.4099 32.3333 29.9766 32.6C29.5432 32.8667 29.1932 33.2 28.9266 33.6C28.6599 34.0333 28.4766 34.5333 28.3766 35.1C28.2766 35.6333 28.2266 36.2 28.2266 36.8C28.2266 37.5 28.2432 38.0833 28.2766 38.55C28.3432 39.0167 28.4766 39.4333 28.6766 39.8C28.8766 40.1667 29.1599 40.4833 29.5266 40.75C29.9266 41.0167 30.4599 41.2833 31.1266 41.55L35.0266 43.1C36.1599 43.5333 37.0766 44.05 37.7766 44.65C38.4766 45.2167 39.0266 45.8833 39.4266 46.65C39.7932 47.45 40.0432 48.3667 40.1766 49.4C40.3099 50.4 40.3766 51.55 40.3766 52.85C40.3766 54.35 40.2266 55.75 39.9266 57.05C39.6266 58.3167 39.1432 59.4 38.4766 60.3C37.7766 61.2333 36.8599 61.9667 35.7266 62.5C34.5932 63.0333 33.2099 63.3 31.5766 63.3C30.3432 63.3 29.1932 63.0833 28.1266 62.65C27.0599 62.2167 26.1432 61.6167 25.3766 60.85C24.6099 60.0833 23.9932 59.2 23.5266 58.2C23.0932 57.1667 22.8766 56.05 22.8766 54.85V52.95H27.9766V54.55C27.9766 55.4833 28.2432 56.3333 28.7766 57.1C29.3432 57.8333 30.2766 58.2 31.5766 58.2C32.4432 58.2 33.1099 58.0833 33.5766 57.85C34.0766 57.5833 34.4599 57.2167 34.7266 56.75C34.9932 56.2833 35.1432 55.7333 35.1766 55.1C35.2432 54.4333 35.2766 53.7 35.2766 52.9C35.2766 51.9667 35.2432 51.2 35.1766 50.6C35.1099 50 34.9766 49.5167 34.7766 49.15C34.5432 48.7833 34.2266 48.4833 33.8266 48.25C33.4599 48.0167 32.9599 47.7667 32.3266 47.5L28.6766 46C26.4766 45.1 24.9932 43.9167 24.2266 42.45C23.4932 40.95 23.1266 39.0833 23.1266 36.85C23.1266 35.5167 23.3099 34.25 23.6766 33.05C24.0432 31.85 24.5932 30.8167 25.3266 29.95C26.0266 29.0833 26.9099 28.4 27.9766 27.9C29.0766 27.3667 30.3766 27.1 31.8766 27.1C33.1432 27.1 34.2932 27.3333 35.3266 27.8C36.3932 28.2667 37.3099 28.8833 38.0766 29.65C39.6099 31.25 40.3766 33.0833 40.3766 35.15V37.65ZM53.5391 63V60.4H53.4391C52.7724 61.3333 52.0891 62.05 51.3891 62.55C50.7224 63.05 49.7724 63.3 48.5391 63.3C47.9391 63.3 47.3224 63.2 46.6891 63C46.0891 62.8333 45.5057 62.5 44.9391 62C44.3724 61.5333 43.9057 60.8667 43.5391 60C43.2057 59.1 43.0391 57.95 43.0391 56.55C43.0391 55.1167 43.1557 53.8667 43.3891 52.8C43.6224 51.7 44.0557 50.7833 44.6891 50.05C45.2891 49.35 46.1057 48.8333 47.1391 48.5C48.1724 48.1333 49.4891 47.95 51.0891 47.95C51.2557 47.95 51.4391 47.95 51.6391 47.95C51.8391 47.95 52.0224 47.9667 52.1891 48C52.3557 48.0333 52.5557 48.05 52.7891 48.05C53.0224 48.05 53.2724 48.0667 53.5391 48.1V45.45C53.5391 44.5833 53.3557 43.8667 52.9891 43.3C52.6224 42.7333 51.9557 42.45 50.9891 42.45C50.3224 42.45 49.7057 42.6667 49.1391 43.1C48.6057 43.5333 48.2557 44.1667 48.0891 45H43.1391C43.2724 42.7333 44.0391 40.9 45.4391 39.5C46.1057 38.8333 46.9057 38.3167 47.8391 37.95C48.7724 37.55 49.8224 37.35 50.9891 37.35C52.0557 37.35 53.0557 37.5167 53.9891 37.85C54.9224 38.1833 55.7391 38.6833 56.4391 39.35C57.1057 40.0167 57.6391 40.85 58.0391 41.85C58.4391 42.85 58.6391 44.0167 58.6391 45.35V63H53.5391ZM53.5391 52.1C52.9724 52 52.5057 51.95 52.1391 51.95C51.0391 51.95 50.0891 52.2167 49.2891 52.75C48.5224 53.25 48.1391 54.1833 48.1391 55.55C48.1391 56.5167 48.3724 57.3 48.8391 57.9C49.3057 58.5 49.9557 58.8 50.7891 58.8C51.6557 58.8 52.3224 58.5167 52.7891 57.95C53.2891 57.3833 53.5391 56.5833 53.5391 55.55V52.1ZM67.7949 55.7C67.7949 56.5 68.0116 57.1167 68.4449 57.55C68.9116 57.9833 69.5283 58.2 70.2949 58.2C71.2616 58.2 71.8949 57.9167 72.1949 57.35C72.5283 56.7833 72.7283 56.2167 72.7949 55.65H77.8949C77.8949 57.8833 77.2116 59.6833 75.8449 61.05C75.1783 61.75 74.3783 62.3 73.4449 62.7C72.5116 63.1 71.4616 63.3 70.2949 63.3C68.6949 63.3 67.3283 62.9667 66.1949 62.3C65.0949 61.6333 64.2449 60.75 63.6449 59.65C63.2783 58.9833 63.0283 58.2167 62.8949 57.35C62.7616 56.4833 62.6949 55.5333 62.6949 54.5V46.15C62.6949 45.1167 62.7616 44.1667 62.8949 43.3C63.0283 42.4333 63.2783 41.6667 63.6449 41C64.2449 39.9 65.0949 39.0167 66.1949 38.35C67.3283 37.6833 68.6949 37.35 70.2949 37.35C71.4616 37.35 72.5116 37.55 73.4449 37.95C74.4116 38.35 75.2283 38.9 75.8949 39.6C77.2283 41.1 77.8949 43.05 77.8949 45.45H72.7949C72.7949 44.4167 72.5616 43.6667 72.0949 43.2C71.6616 42.7 71.0616 42.45 70.2949 42.45C69.5283 42.45 68.9116 42.7 68.4449 43.2C68.0116 43.6667 67.7949 44.3833 67.7949 45.35V55.7Z" fill="white"/>
</svg>
