<svg width="121" height="121" viewBox="0 0 121 121" fill="none" xmlns="http://www.w3.org/2000/svg">
<path d="M117.16 55.3882L65.4885 3.71878C62.5147 0.743154 57.6885 0.743154 54.71 3.71878L43.9813 14.4494L57.5919 28.06C60.756 26.9922 64.3822 27.7085 66.9031 30.2294C69.4372 32.7663 70.1478 36.4235 69.0538 39.5978L82.1713 52.7163C85.3447 51.6222 89.0075 52.3291 91.5406 54.8678C95.0844 58.4088 95.0844 64.1491 91.5406 67.6919C90.6985 68.5345 89.6986 69.2028 88.5981 69.6588C87.4976 70.1148 86.318 70.3495 85.1267 70.3495C83.9355 70.3495 82.7559 70.1148 81.6554 69.6588C80.5549 69.2028 79.555 68.5345 78.7128 67.6919C77.4476 66.4259 76.5851 64.8138 76.2339 63.0587C75.8828 61.3036 76.0586 59.4839 76.7394 57.8285L64.5069 45.596L64.505 77.7907C65.3925 78.2277 66.2028 78.8066 66.9041 79.5044C70.4459 83.0453 70.4459 88.7838 66.9041 92.3322C63.3613 95.8732 57.6191 95.8732 54.08 92.3322C50.5381 88.7847 50.5381 83.0463 54.08 79.5044C54.9286 78.6545 55.9379 77.982 57.0491 77.5263V45.0335C55.937 44.579 54.9274 43.906 54.08 43.0544C51.3969 40.3732 50.7509 36.4357 52.1272 33.1394L38.7088 19.721L3.27876 55.1491C1.84937 56.5789 1.04639 58.5179 1.04639 60.5397C1.04639 62.5615 1.84937 64.5005 3.27876 65.9303L54.951 117.6C57.9266 120.575 62.7509 120.575 65.7313 117.6L117.161 66.1703C118.59 64.7401 119.392 62.8009 119.392 60.7791C119.392 58.7572 118.589 56.8181 117.16 55.3882Z" fill="#F34F29"/>
</svg>
