<svg width="121" height="121" viewBox="0 0 121 121" fill="none" xmlns="http://www.w3.org/2000/svg">
<path d="M110.928 92.6274L63.0687 119.721V98.6181L92.8437 82.2212L110.928 92.6274ZM114.209 89.6649V33.0493L96.6969 43.1743V79.5587L114.2 89.6556L114.209 89.6649ZM11.0094 92.6274L58.8219 119.702V98.6181L29.0375 82.2212L11.0094 92.6274ZM7.72812 89.6649V33.0493L25.2406 43.1743V79.5587L7.72812 89.6649ZM9.78124 29.3837L58.8687 1.59619V21.9962L27.4156 39.2931L27.1625 39.4337L9.78124 29.3837ZM112.137 29.3837L63.0687 1.59619V21.9962L94.5219 39.2837L94.775 39.4243L112.156 29.3837H112.137Z" fill="#8ED6FB"/>
<path d="M58.8687 93.818L29.4406 77.6273V45.5836L58.8687 62.5336V93.818ZM63.0687 93.818L92.4969 77.6461V45.5836L63.0687 62.5336V93.818ZM31.4375 41.9086L60.9687 25.6523L90.5 41.9086L60.9687 58.9336L31.4375 41.9086Z" fill="#1C78C0"/>
</svg>
