<svg width="121" height="121" viewBox="0 0 121 121" fill="none" xmlns="http://www.w3.org/2000/svg">
<g clip-path="url(#clip0_332_4932)">
<path d="M28.6281 43.6899H51.2219V45.4712H30.6906V58.9712H50.0031V60.7524H30.6906V75.5649H51.5031V77.3462H28.6281V43.6899ZM53.2844 43.6899H55.7219L66.4094 58.5024L77.1906 43.6899L92.0031 24.9399L67.6281 60.0962L80.1906 77.3462H77.6594L66.3156 61.5962L54.8781 77.3462H52.4406L65.0969 60.0962L53.2844 43.6899ZM81.1281 45.4712V43.6899H106.909V45.4712H95.0031V77.3462H92.9406V45.4712H81.1281ZM0.315613 43.6899H2.84686L38.6594 96.9399L23.8469 77.3462L2.47186 46.2212L2.37811 77.3462H0.315613V43.6899ZM106.722 75.0024C107.191 75.0024 107.472 74.7212 107.472 74.2524C107.472 73.7837 107.191 73.5024 106.722 73.5024C106.253 73.5024 105.972 73.7837 105.972 74.2524C105.972 74.7212 106.347 75.0024 106.722 75.0024ZM108.784 73.0337C108.784 74.2524 109.722 75.0962 111.034 75.0962C112.441 75.0962 113.284 74.2524 113.284 72.7524V67.5962H112.159V72.7524C112.159 73.5962 111.784 73.9712 111.034 73.9712C110.378 73.9712 109.909 73.5962 109.909 72.9399H108.784V73.0337ZM114.691 72.9399C114.784 74.2524 115.816 75.0962 117.503 75.0962C119.191 75.0962 120.316 74.2524 120.316 72.8462C120.316 71.7212 119.659 71.1587 118.253 70.7837L117.409 70.5962C116.472 70.4087 116.097 70.0337 116.097 69.5649C116.097 68.9087 116.659 68.4399 117.597 68.4399C118.441 68.4399 119.003 68.8149 119.097 69.5649H120.222C120.128 68.3462 119.097 67.5024 117.597 67.5024C116.003 67.5024 114.972 68.3462 114.972 69.6587C114.972 70.6899 115.534 71.3462 116.847 71.6274L117.784 71.8149C118.722 72.0024 119.191 72.3774 119.191 72.9399C119.191 73.5962 118.534 74.0649 117.597 74.0649C116.659 74.0649 115.909 73.5962 115.816 72.9399H114.691Z" fill="black"/>
</g>
<defs>
<clipPath id="clip0_332_4932">
<rect width="120" height="120" fill="white" transform="translate(0.315613 0.658691)"/>
</clipPath>
</defs>
</svg>
