<svg width="121" height="121" viewBox="0 0 121 121" fill="none" xmlns="http://www.w3.org/2000/svg">
<g clip-path="url(#clip0_332_4955)">
<path d="M60.9725 24.6606C44.9722 24.6606 34.9756 32.6575 30.9725 48.6578C36.9706 40.66 43.9728 37.661 51.9706 39.6606C56.5372 40.7988 59.8006 44.11 63.4147 47.7794C69.2966 53.7485 76.1047 60.6588 90.9725 60.6588C106.972 60.6588 116.969 52.661 120.973 36.6569C114.973 44.6594 107.972 47.6585 99.9734 45.6588C95.4078 44.5197 92.1481 41.2094 88.5294 37.54C82.6513 31.571 75.845 24.6606 60.9725 24.6606ZM30.9725 60.6588C14.9731 60.6588 4.97563 68.6566 0.972504 84.6606C6.97063 76.6581 13.9719 73.6591 21.9706 75.6588C26.5372 76.7978 29.8006 80.1082 33.4147 83.7775C39.2966 89.7466 46.1047 96.6569 60.9725 96.6569C76.9719 96.6569 86.9694 88.66 90.9725 72.6597C84.9734 80.6575 77.9722 83.6566 69.9734 81.6569C65.4078 80.5188 62.1481 77.2075 58.5294 73.5381C52.6513 67.5691 45.845 60.6588 30.9725 60.6588Z" fill="#38BDF8"/>
</g>
<defs>
<clipPath id="clip0_332_4955">
<rect width="120" height="120" fill="white" transform="translate(0.96875 0.658691)"/>
</clipPath>
</defs>
</svg>
