<svg width="121" height="121" viewBox="0 0 121 121" fill="none" xmlns="http://www.w3.org/2000/svg">
<g clip-path="url(#clip0_332_4941)">
<path d="M62.3315 0.671781C61.2504 0.600413 60.1705 0.827426 59.2096 1.32804C58.2487 1.82865 57.4438 2.58362 56.8828 3.51053L12.0046 76.703C11.4199 77.6563 11.1142 78.7543 11.1221 79.8726C11.1301 80.9908 11.4514 82.0845 12.0496 83.0293L34.1446 117.891C34.8455 118.99 35.8856 119.83 37.1072 120.284C38.3288 120.738 39.6651 120.781 40.9134 120.406L104.675 101.275C105.494 101.03 106.25 100.612 106.894 100.049C107.537 99.4861 108.052 98.7917 108.404 98.0127C108.756 97.2337 108.937 96.3882 108.934 95.5333C108.931 94.6785 108.744 93.8343 108.387 93.0577L67.3996 4.13584C66.9539 3.14968 66.2457 2.30499 65.3524 1.69407C64.4591 1.08316 63.415 0.729513 62.3343 0.671781H62.3315ZM64.0143 23.1249C64.491 23.0679 64.9733 23.1684 65.3876 23.4109C65.802 23.6534 66.1256 24.0248 66.3093 24.4683L94.5843 89.8908C94.7103 90.1816 94.7732 90.4957 94.7688 90.8126C94.7644 91.1294 94.6928 91.4417 94.5589 91.7288C94.4249 92.016 94.2316 92.2715 93.9916 92.4784C93.7517 92.6853 93.4706 92.839 93.1668 92.9293L49.1081 106.077C48.7379 106.187 48.3455 106.199 47.9691 106.113C47.5927 106.026 47.2449 105.844 46.9597 105.584C46.6744 105.323 46.4613 104.994 46.341 104.627C46.2207 104.26 46.1973 103.868 46.2731 103.489L62.0512 24.9155C62.1396 24.4436 62.3796 24.0133 62.7348 23.6902C63.0899 23.367 63.5408 23.1685 64.019 23.1249H64.0143Z" fill="#2D3748"/>
</g>
<defs>
<clipPath id="clip0_332_4941">
<rect width="120" height="120" fill="white" transform="translate(0.0280762 0.658691)"/>
</clipPath>
</defs>
</svg>
