<svg width="121" height="121" viewBox="0 0 121 121" fill="none" xmlns="http://www.w3.org/2000/svg">
<g clip-path="url(#clip0_332_4884)">
<path d="M60.2188 120.659C27.0838 120.659 0.21875 93.7937 0.21875 60.6587C0.21875 27.5237 27.0838 0.658691 60.2188 0.658691C93.3538 0.658691 120.219 27.5237 120.219 60.6587C120.219 93.7937 93.3538 120.659 60.2188 120.659ZM110.219 61.1187H77.9588V70.2887H100.079C96.8538 84.0537 86.7088 95.5187 73.3488 100.109L20.3538 47.3587C25.8837 31.3037 41.5538 19.8337 59.5288 19.8337C73.3538 19.8337 85.7987 26.7187 93.6287 37.2687L100.544 31.3037C91.3188 18.9137 76.5788 10.6587 59.5288 10.6587C35.5638 10.6587 15.2888 27.6337 10.2188 50.1087L71.0437 110.659C93.1687 105.154 110.219 84.9687 110.219 61.1137V61.1187ZM10.2188 60.6587C10.2188 73.6237 15.3087 86.1187 25.0337 95.8437C34.7588 105.569 47.7188 110.659 60.2188 110.659L10.2188 60.6587Z" fill="#663399"/>
</g>
<defs>
<clipPath id="clip0_332_4884">
<rect width="120" height="120" fill="white" transform="translate(0.21875 0.658691)"/>
</clipPath>
</defs>
</svg>
