<svg width="81" height="121" viewBox="0 0 81 121" fill="none" xmlns="http://www.w3.org/2000/svg">
<g clip-path="url(#clip0_332_4862)">
<path d="M20.8126 120.659C31.8526 120.659 40.8126 111.699 40.8126 100.659V80.6587H20.8126C9.77256 80.6587 0.812561 89.6187 0.812561 100.659C0.812561 111.699 9.77256 120.659 20.8126 120.659Z" fill="#0ACF83"/>
<path d="M0.812561 60.6587C0.812561 49.6187 9.77256 40.6587 20.8126 40.6587H40.8126V80.6587H20.8126C9.77256 80.6587 0.812561 71.6987 0.812561 60.6587Z" fill="#A259FF"/>
<path d="M0.812561 20.6587C0.812561 9.61869 9.77256 0.658691 20.8126 0.658691H40.8126V40.6587H20.8126C9.77256 40.6587 0.812561 31.6987 0.812561 20.6587Z" fill="#F24E1E"/>
<path d="M40.8126 0.658691H60.8126C71.8526 0.658691 80.8126 9.61869 80.8126 20.6587C80.8126 31.6987 71.8526 40.6587 60.8126 40.6587H40.8126V0.658691Z" fill="#FF7262"/>
<path d="M80.8126 60.6587C80.8126 71.6987 71.8526 80.6587 60.8126 80.6587C49.7726 80.6587 40.8126 71.6987 40.8126 60.6587C40.8126 49.6187 49.7726 40.6587 60.8126 40.6587C71.8526 40.6587 80.8126 49.6187 80.8126 60.6587Z" fill="#1ABCFE"/>
</g>
<defs>
<clipPath id="clip0_332_4862">
<rect width="80.025" height="120" fill="white" transform="translate(0.800049 0.658691)"/>
</clipPath>
</defs>
</svg>
