<svg width="117" height="101" viewBox="0 0 117 101" fill="none" xmlns="http://www.w3.org/2000/svg">
<g clip-path="url(#clip0_332_4907)">
<path d="M98.1802 68.7248C98.6674 68.4451 99.0725 68.0421 99.3548 67.5563C99.637 67.0705 99.7866 66.5191 99.7883 65.9573L99.846 47.4199C99.8477 46.858 99.9972 46.3064 100.279 45.8206C100.562 45.3347 100.967 44.9317 101.454 44.6519L111.503 38.8798C111.99 38.6 112.542 38.4533 113.103 38.4542C113.665 38.4551 114.217 38.6036 114.703 38.8849C115.189 39.1662 115.592 39.5704 115.873 40.0569C116.154 40.5434 116.301 41.0952 116.301 41.6568V75.3586C116.301 75.9221 116.153 76.4757 115.87 76.9633C115.588 77.451 115.182 77.8555 114.693 78.1361L76.7699 99.9185C76.2854 100.197 75.7366 100.343 75.1779 100.344C74.6193 100.344 74.0702 100.199 73.5852 99.9217L43.8239 82.8992C43.3336 82.6192 42.926 82.2146 42.6424 81.7264C42.3588 81.2381 42.2093 80.6836 42.2091 80.119V63.1253C42.2091 63.1064 42.2316 63.0938 42.251 63.1028C42.2667 63.1127 42.2892 63.1028 42.2892 63.0802V63.0613C42.2892 63.0487 42.2956 63.0356 42.3086 63.0293L66.8203 48.9478C66.8428 48.9347 66.8329 48.8996 66.8073 48.8996C66.8005 48.8996 66.7939 48.8969 66.7891 48.8921C66.7843 48.8873 66.7816 48.8807 66.7816 48.8739L66.8298 32.2136C66.8321 31.6502 66.6857 31.0961 66.4055 30.6074C66.1253 30.1186 65.7211 29.7124 65.2338 29.4297C64.7464 29.147 64.1931 28.9979 63.6297 28.9974C63.0663 28.9968 62.5127 29.1449 62.0248 29.4266L43.8077 39.9244C43.3215 40.2043 42.7703 40.3517 42.2093 40.3517C41.6483 40.3517 41.0971 40.2043 40.6109 39.9244L22.3361 29.4019C21.8492 29.1215 21.2972 28.974 20.7354 28.9744C20.1735 28.9748 19.6217 29.1229 19.1352 29.4039C18.6487 29.685 18.2447 30.089 17.9637 30.5755C17.6827 31.062 17.5346 31.6139 17.5343 32.1757V62.2865C17.5347 62.8478 17.3877 63.3992 17.1079 63.8858C16.8281 64.3723 16.4254 64.7767 15.9402 65.0586C15.4549 65.3406 14.9041 65.49 14.3428 65.4921C13.7816 65.4941 13.2297 65.3487 12.7424 65.0703L2.6005 59.2712C2.1094 58.9907 1.70133 58.5852 1.41777 58.0958C1.13421 57.6065 0.985266 57.0508 0.986087 56.4852L1.07618 3.85456C1.07761 3.29367 1.22631 2.74299 1.50738 2.25761C1.78846 1.77222 2.19206 1.36915 2.67781 1.08872C3.16357 0.808282 3.71445 0.660316 4.27534 0.659618C4.83623 0.658921 5.38748 0.805518 5.87393 1.08474L40.614 21.037C41.0995 21.3158 41.6495 21.4625 42.2093 21.4625C42.7691 21.4625 43.3191 21.3158 43.8046 21.037L78.5343 1.08384C79.0215 0.803958 79.5738 0.657169 80.1357 0.658209C80.6976 0.659249 81.2494 0.808082 81.7355 1.08977C82.2217 1.37145 82.6253 1.77608 82.9057 2.26303C83.1861 2.74998 83.3334 3.30212 83.3329 3.86402V56.5068C83.3332 57.07 83.1851 57.6232 82.9034 58.1109C82.6217 58.5985 82.2164 59.0032 81.7284 59.2843L63.5401 69.7591C63.0516 70.0407 62.646 70.4462 62.3644 70.9348C62.0828 71.4234 61.9352 71.9776 61.9365 72.5415C61.9378 73.1055 62.0879 73.659 62.3717 74.1463C62.6555 74.6336 63.0629 75.0374 63.5528 75.3167L73.5856 81.0284C74.0705 81.3044 74.619 81.4489 75.1768 81.4477C75.7347 81.4465 76.2826 81.2997 76.7663 81.0217L98.1807 68.7244L98.1802 68.7248ZM100.285 21.5019C100.285 22.0684 100.436 22.6247 100.721 23.114C101.007 23.6033 101.417 24.0081 101.91 24.2872C102.403 24.5662 102.961 24.7095 103.528 24.7024C104.094 24.6954 104.649 24.5382 105.135 24.2469L114.745 18.4811C115.219 18.1969 115.612 17.7947 115.885 17.3136C116.157 16.8326 116.301 16.2891 116.301 15.7361V3.9861C116.3 3.41984 116.149 2.86395 115.864 2.37509C115.578 1.88623 115.168 1.48185 114.675 1.20318C114.182 0.924499 113.624 0.781478 113.057 0.788685C112.491 0.795892 111.937 0.95307 111.451 1.2442L101.842 7.00997C101.367 7.2942 100.975 7.69646 100.702 8.1776C100.429 8.65873 100.285 9.20233 100.285 9.75546V21.505V21.5019Z" fill="#007FFF"/>
</g>
<defs>
<clipPath id="clip0_332_4907">
<rect width="115.344" height="100" fill="white" transform="translate(0.971863 0.658691)"/>
</clipPath>
</defs>
</svg>
