<svg width="144" height="121" viewBox="0 0 144 121" fill="none" xmlns="http://www.w3.org/2000/svg">
<g clip-path="url(#clip0_332_4868)">
<path d="M64.5681 2.1662L11.3222 24.1988C8.36123 25.4239 8.39193 29.6295 11.3718 30.811L64.8399 52.0142C69.5378 53.8774 74.7697 53.8774 79.4676 52.0142L132.937 30.8105C135.916 29.63 135.947 25.4244 132.985 24.1988L79.74 2.16564C74.8824 0.155724 69.4257 0.156282 64.5681 2.1662Z" fill="#FFBF00"/>
<path d="M76.898 63.5927V116.561C76.898 119.081 79.4375 120.806 81.7794 119.878L141.36 96.7513C142.024 96.4878 142.594 96.0309 142.996 95.4396C143.397 94.8484 143.612 94.1501 143.612 93.4353V40.4662C143.612 37.9468 141.072 36.2221 138.73 37.1503L79.1495 60.2763C78.4851 60.5398 77.9151 60.9969 77.5136 61.5883C77.112 62.1796 76.8974 62.8779 76.8974 63.5927" fill="#26B5F8"/>
<path d="M62.9852 66.3261L45.3034 74.8634L43.5078 75.7313L6.1817 93.6158C3.81575 94.7572 0.795654 93.0331 0.795654 90.4048V40.6885C0.795654 39.7375 1.28347 38.9164 1.93761 38.298C2.2056 38.0313 2.50957 37.8035 2.84068 37.621C3.73258 37.0857 5.00514 36.9429 6.08682 37.3709L62.6878 59.797C65.565 60.9384 65.791 64.9704 62.9852 66.3261Z" fill="#ED3049"/>
<path d="M62.9852 66.326L45.3033 74.8633L1.93701 38.2985C2.20501 38.0318 2.50897 37.804 2.84008 37.6215C3.73199 37.0862 5.00455 36.9433 6.08622 37.3714L62.6871 59.7975C65.5644 60.9389 65.791 64.9703 62.9852 66.326Z" fill="black" fill-opacity="0.25"/>
</g>
<defs>
<clipPath id="clip0_332_4868">
<rect width="142.913" height="120" fill="white" transform="translate(0.78125 0.658691)"/>
</clipPath>
</defs>
</svg>
