<svg width="101" height="101" viewBox="0 0 101 101" fill="none" xmlns="http://www.w3.org/2000/svg">
<g clip-path="url(#clip0_332_4957)">
<path d="M8.78125 0.658691H93.1562C97.4711 0.658691 100.969 4.15635 100.969 8.47119V92.8462C100.969 97.161 97.4711 100.659 93.1562 100.659H8.78125C4.46641 100.659 0.96875 97.161 0.96875 92.8462V8.47119C0.96875 4.15635 4.46641 0.658691 8.78125 0.658691Z" fill="#3178C6"/>
<path d="M59.7648 78.9692V89.7583C61.5195 90.6575 63.5949 91.3317 65.9906 91.7813C68.3863 92.231 70.9113 92.4556 73.566 92.4556C76.1527 92.4556 78.6105 92.2083 80.9387 91.7138C83.2668 91.2192 85.3086 90.4044 87.0629 89.2696C88.8176 88.1345 90.2066 86.6509 91.2305 84.8188C92.2539 82.9872 92.7656 80.7228 92.7656 78.0255C92.7656 76.07 92.473 74.356 91.8883 72.8837C91.3099 71.4214 90.45 70.0869 89.3574 68.956C88.2555 67.8095 86.9336 66.7813 85.393 65.8708C83.852 64.9606 82.1141 64.1009 80.1793 63.2919C78.7621 62.7071 77.4914 62.1399 76.3664 61.5892C75.2418 61.0384 74.2855 60.4767 73.4984 59.9032C72.7109 59.3302 72.1035 58.7231 71.6762 58.0825C71.2488 57.4419 71.0352 56.7173 71.0352 55.9079C71.0352 55.1661 71.2262 54.4978 71.6086 53.902C71.991 53.3063 72.5312 52.795 73.2285 52.3681C73.9258 51.9407 74.7805 51.6095 75.793 51.3731C76.8051 51.1372 77.9301 51.0192 79.1672 51.0192C80.0672 51.0192 81.0176 51.0868 82.0184 51.2216C83.0195 51.3563 84.0262 51.5642 85.0387 51.8454C86.0479 52.1252 87.0348 52.4802 87.991 52.9075C88.9182 53.3184 89.805 53.8149 90.6398 54.3907V44.3099C88.9977 43.6806 87.2035 43.2142 85.2578 42.9106C83.3121 42.6071 81.0793 42.4556 78.5598 42.4556C75.9953 42.4556 73.566 42.731 71.2715 43.2817C68.977 43.8321 66.9578 44.6919 65.2145 45.8606C63.4711 47.0298 62.0934 48.5188 61.0809 50.3282C60.0687 52.1376 59.5625 54.3009 59.5625 56.8185C59.5625 60.0325 60.4902 62.7747 62.3465 65.045C64.2023 67.3149 67.0195 69.2368 70.7988 70.8103C72.194 71.3784 73.5777 71.9743 74.9492 72.5974C76.2316 73.1817 77.3395 73.7884 78.273 74.4177C79.2066 75.047 79.9434 75.7325 80.4832 76.4743C81.023 77.2161 81.293 78.0591 81.293 79.0032C81.2975 79.6827 81.1228 80.3514 80.7867 80.9419C80.4496 81.5372 79.9375 82.0544 79.2516 82.4927C78.5656 82.931 77.7105 83.2735 76.6871 83.5208C75.6637 83.7681 74.4656 83.8919 73.0934 83.8919C70.7539 83.8919 68.4371 83.4817 66.1426 82.661C63.8477 81.8407 61.7219 80.6103 59.7648 78.9692ZM41.782 52.1204H55.6562V43.2368H16.9844V52.1204H30.791V91.6743H41.782V52.1204Z" fill="white"/>
</g>
<defs>
<clipPath id="clip0_332_4957">
<rect width="100" height="100" fill="white" transform="translate(0.96875 0.658691)"/>
</clipPath>
</defs>
</svg>
