<svg width="118" height="121" viewBox="0 0 118 121" fill="none" xmlns="http://www.w3.org/2000/svg">
<g clip-path="url(#clip0_332_4936)">
<path d="M116.559 72.5161C115.861 70.4029 114.034 68.9311 111.67 68.5779C110.555 68.4115 109.279 68.4824 107.769 68.7938C105.136 69.337 103.183 69.5438 101.757 69.5838C107.138 60.4997 111.513 50.1406 114.031 40.3892C118.104 24.6215 115.928 17.4383 113.384 14.1892C106.654 5.58925 96.8345 0.969249 84.9881 0.827885C78.6686 0.750613 73.1208 1.99834 70.2267 2.89561C67.5322 2.42016 64.6349 2.1547 61.5949 2.10561C55.8963 2.0147 50.8613 3.25698 46.559 5.81016C44.1772 5.0047 40.3545 3.86925 35.9399 3.1447C25.5572 1.44016 17.189 2.76834 11.0681 7.09243C3.65629 12.3279 0.220383 21.4242 0.855838 34.1288C1.05766 38.1624 3.31402 50.4352 6.86675 62.0742C8.90857 68.7643 11.0858 74.3197 13.3381 78.5879C16.5322 84.6402 19.9499 88.2043 23.7867 89.4843C25.9372 90.2006 29.8445 90.7024 33.954 87.2797C34.4749 87.9106 35.1699 88.5374 36.0922 89.1197C37.2636 89.8583 38.6958 90.462 40.1263 90.8197C45.2813 92.1083 50.1099 91.7861 54.2295 89.9797C54.2549 90.7124 54.2745 91.4124 54.2908 92.017C54.3181 92.9974 54.3454 93.9588 54.3813 94.8579C54.6254 100.937 55.039 105.664 56.2645 108.971C56.3317 109.153 56.4222 109.43 56.5177 109.724C57.129 111.596 58.1513 114.73 60.7522 117.184C63.4454 119.726 66.7031 120.506 69.6867 120.506C71.1831 120.506 72.6108 120.309 73.8631 120.041C78.3267 119.084 83.3963 117.627 87.0636 112.405C90.5308 107.469 92.2163 100.034 92.5213 88.3188C92.5608 87.9874 92.5972 87.6711 92.6322 87.3697L92.7049 86.7506L93.5217 86.8224L93.7322 86.8365C98.2786 87.0438 103.838 86.0797 107.252 84.4938C109.949 83.242 118.594 78.6779 116.559 72.5161Z" fill="black"/>
<path d="M108.785 73.7141C95.2672 76.5027 94.3377 71.9259 94.3377 71.9259C108.61 50.7472 114.577 23.864 109.429 17.2845C95.3813 -0.663228 71.0654 7.82495 70.6595 8.04495L70.529 8.06859C67.8581 7.51405 64.8695 7.18405 61.5099 7.12905C55.3936 7.02905 50.7536 8.73268 47.2327 11.4027C47.2327 11.4027 3.85538 -6.46732 5.87311 33.8772C6.3022 42.46 18.1749 98.8195 32.3358 81.7963C37.5117 75.5713 42.5131 70.3081 42.5131 70.3081C44.9967 71.9581 47.9704 72.8 51.0877 72.4977L51.3299 72.2922C51.2545 73.065 51.289 73.8209 51.4268 74.7159C47.7786 78.7918 48.8508 79.5072 41.5581 81.0086C34.1786 82.5295 38.5136 85.2368 41.344 85.945C44.7754 86.8027 52.7136 88.0181 58.0772 80.5095L57.8636 81.3663C59.2927 82.5113 60.2963 88.8131 60.1281 94.5263C59.9599 100.239 59.8477 104.161 60.9736 107.225C62.1004 110.289 63.2227 117.182 72.8099 115.128C80.8204 113.411 84.9718 108.962 85.5495 101.541C85.959 96.2659 86.8867 97.0459 86.9449 92.329L87.689 90.0963C88.5468 82.945 87.8254 80.6377 92.7604 81.7109L93.9604 81.8163C97.5922 81.9813 102.347 81.2318 105.137 79.935C111.145 77.1468 114.709 72.4909 108.784 73.7141H108.785Z" fill="#336791"/>
<path d="M49.7717 37.7155C48.5536 37.5459 47.4504 37.7027 46.8922 38.1255C46.5786 38.3632 46.4813 38.6386 46.4549 38.8282C46.3849 39.3305 46.7367 39.8859 46.9531 40.1723C47.5649 40.9832 48.4586 41.5405 49.3431 41.6632C49.4713 41.6814 49.599 41.6895 49.7258 41.6895C51.2008 41.6895 52.5422 40.5409 52.6604 39.6932C52.8081 38.6314 51.2667 37.9232 49.7717 37.7155ZM90.1281 37.7491C90.0117 36.9168 88.5308 36.6795 87.1254 36.875C85.7217 37.0705 84.3608 37.7041 84.4745 38.5382C84.5654 39.1868 85.7367 40.2941 87.1231 40.2941C87.2404 40.2941 87.3586 40.2864 87.4777 40.2695C88.4031 40.1414 89.0822 39.5536 89.4049 39.215C89.8958 38.6986 90.1804 38.1232 90.1281 37.7491Z" fill="white"/>
<path d="M113.284 73.3973C112.768 71.8386 111.109 71.3373 108.353 71.9064C100.169 73.5955 97.2377 72.4255 96.2754 71.7168C102.637 62.0259 107.87 50.3114 110.693 39.3818C112.03 34.2045 112.769 29.3964 112.829 25.4773C112.896 21.1759 112.164 18.015 110.653 16.0841C104.561 8.3 95.6199 4.12454 84.7972 4.01C77.3568 3.92636 71.0704 5.83045 69.8517 6.3659C67.2854 5.72772 64.4877 5.3359 61.4417 5.2859C55.8563 5.19545 51.0281 6.53272 47.0308 9.25863C45.2945 8.61227 40.8072 7.07181 35.3195 6.18772C25.8322 4.66045 18.2931 5.81772 12.9131 9.62909C6.49356 14.1773 3.52993 22.3073 4.10402 33.7927C4.2972 37.6568 6.49902 49.5441 9.97356 60.9282C14.5472 75.9118 19.519 84.3941 24.7499 86.1391C25.3622 86.3432 26.0681 86.4859 26.8467 86.4859C28.7549 86.4859 31.0945 85.6259 33.5286 82.6995C36.4975 79.138 39.5686 75.6629 42.7381 72.2786C44.7945 73.3823 47.0536 73.9986 49.364 74.0604C49.3686 74.1209 49.3745 74.1814 49.3799 74.2414C48.9822 74.7156 48.5928 75.1968 48.2117 75.6845C46.6108 77.7168 46.2777 78.14 41.1245 79.2009C39.6586 79.5036 35.7654 80.3059 35.7081 83.035C35.6463 86.0168 40.3104 87.2691 40.8417 87.4018C42.6936 87.8655 44.4777 88.0941 46.179 88.0941C50.3167 88.0941 53.9581 86.7341 56.8681 84.1027C56.7786 94.7327 57.2217 105.207 58.4981 108.399C59.5436 111.011 62.0972 117.396 70.1636 117.396C71.3472 117.396 72.6499 117.258 74.0831 116.951C82.5017 115.146 86.1577 111.425 87.5717 103.222C88.3286 98.8382 89.6272 88.3695 90.2381 82.7541C91.5272 83.1564 93.1867 83.3405 94.9808 83.34C98.7227 83.34 103.04 82.545 105.748 81.2882C108.79 79.8755 114.279 76.4091 113.284 73.3973ZM93.2354 35.4518C93.2077 37.1095 92.9795 38.6145 92.7377 40.1854C92.4772 41.875 92.2081 43.6218 92.1404 45.7423C92.0736 47.8059 92.3313 49.9514 92.5804 52.0264C93.084 56.2173 93.6008 60.5318 91.6004 64.7891C91.2681 64.2003 90.9721 63.5917 90.714 62.9668C90.4654 62.3641 89.9254 61.3959 89.1777 60.0559C86.269 54.8395 79.4577 42.6241 82.9445 37.6395C83.9831 36.1559 86.619 34.6304 93.2354 35.4518ZM85.2154 7.36681C94.9127 7.5809 102.584 11.2086 108.014 18.1486C112.18 23.4718 107.593 47.6932 94.3145 68.5891C94.1809 68.4193 94.0467 68.25 93.9118 68.0814L93.7436 67.8714C97.1749 62.2045 96.504 56.5977 95.9067 51.6268C95.6613 49.5868 95.4295 47.66 95.4886 45.85C95.5495 43.9318 95.8031 42.2864 96.0486 40.6954C96.3499 38.735 96.6568 36.7064 96.5722 34.315C96.6354 34.0641 96.6608 33.7677 96.6277 33.4159C96.4118 31.1227 93.7936 24.2595 88.4572 18.0477C85.5381 14.65 81.2813 10.8477 75.469 8.28318C77.969 7.765 81.3877 7.28181 85.2154 7.36681ZM30.9527 80.5577C28.2708 83.7823 26.419 83.1641 25.8099 82.9614C21.8417 81.6377 17.2372 73.2505 13.1777 59.9505C9.66493 48.4423 7.6122 36.87 7.44947 33.625C6.93675 23.3623 9.42447 16.21 14.844 12.3664C23.664 6.11181 38.1649 9.85545 43.9917 11.7541C43.9081 11.8368 43.8208 11.9141 43.7381 11.9982C34.1763 21.6545 34.4031 38.1527 34.4267 39.1614C34.4258 39.5504 34.4586 40.1014 34.5031 40.8591C34.6677 43.6341 34.974 48.7986 34.1558 54.6473C33.3958 60.0823 35.0713 65.4018 38.7517 69.2423C39.1295 69.6357 39.5265 70.0101 39.9413 70.3641C38.3031 72.1186 34.7427 75.9986 30.9527 80.5577ZM41.1704 66.9245C38.204 63.8291 36.8567 59.5236 37.4736 55.1109C38.3372 48.9327 38.0186 43.5518 37.8472 40.6609C37.8231 40.2564 37.8017 39.9018 37.7895 39.6223C39.1863 38.3836 45.6595 34.9155 50.2758 35.9732C52.3822 36.4555 53.6658 37.89 54.1995 40.3573C56.9613 53.1314 54.5649 58.4554 52.6395 62.7341C52.2427 63.6154 51.8677 64.4486 51.5477 65.3104L51.2995 65.9768C50.6713 67.6614 50.0867 69.2277 49.7245 70.715C46.5708 70.7059 43.5031 69.3586 41.1704 66.9241V66.9245ZM41.6545 84.1518C40.7336 83.9218 39.9054 83.5223 39.4195 83.1909C39.8254 83 40.5477 82.74 41.8004 82.4818C47.8627 81.2341 48.799 80.3532 50.8436 77.7573C51.3122 77.1618 51.8436 76.4873 52.5795 75.6655L52.5804 75.6645C53.6763 74.4373 54.1777 74.6454 55.0867 75.0227C55.8236 75.3273 56.5413 76.2509 56.8322 77.2673C56.9699 77.7473 57.1245 78.6582 56.6186 79.3673C52.3477 85.3473 46.124 85.2704 41.6545 84.1518ZM73.3813 113.675C65.9649 115.265 63.339 111.48 61.6086 107.155C60.4917 104.362 59.9427 91.7682 60.3322 77.8605C60.3372 77.6754 60.3108 77.4968 60.2599 77.3286C60.2144 76.9965 60.1451 76.6681 60.0527 76.3459C59.4736 74.3223 58.0622 72.6295 56.369 71.9277C55.6963 71.6491 54.4617 71.1377 52.9781 71.5173C53.2945 70.2136 53.8431 68.7414 54.4381 67.1473L54.6877 66.4768C54.9686 65.7209 55.3213 64.9377 55.694 64.1086C57.709 59.6323 60.4686 53.5009 57.4736 39.6495C56.3517 34.4614 52.6054 31.9277 46.9263 32.5164C43.5217 32.8686 40.4067 34.2423 38.8531 35.03C38.519 35.1991 38.2136 35.3627 37.9281 35.5218C38.3617 30.2945 39.9999 20.5254 46.1281 14.3445C49.9867 10.4536 55.1254 8.53181 61.3863 8.63545C73.7227 8.83727 81.6336 15.1682 86.0981 20.4441C89.9454 24.99 92.0286 29.5695 92.8599 32.0395C86.6077 31.4036 82.3554 32.6377 80.1999 35.7195C75.5104 42.4232 82.7654 55.4341 86.2522 61.6873C86.8917 62.8332 87.4436 63.8236 87.6172 64.2445C88.7527 66.9964 90.2227 68.8336 91.2958 70.1745C91.6249 70.5854 91.944 70.9841 92.1868 71.3323C90.2931 71.8782 86.8917 73.1395 87.2017 79.4445C86.9517 82.6082 85.174 97.42 84.2708 102.653C83.0786 109.567 80.5345 112.142 73.3813 113.676V113.675ZM104.338 78.25C102.401 79.1486 99.1608 79.8227 96.0827 79.9677C92.6827 80.1268 90.9518 79.5868 90.5445 79.2545C90.3536 75.3254 91.8158 74.915 93.3636 74.4805C93.6068 74.4123 93.844 74.3455 94.0731 74.2654C94.2154 74.3814 94.3713 74.4964 94.5422 74.6091C97.2749 76.4127 102.149 76.6073 109.03 75.1868L109.106 75.1718C108.178 76.0395 106.589 77.2041 104.338 78.25Z" fill="white"/>
</g>
<defs>
<clipPath id="clip0_332_4936">
<rect width="116.4" height="120" fill="white" transform="translate(0.628113 0.658691)"/>
</clipPath>
</defs>
</svg>
