<svg width="121" height="121" viewBox="0 0 121 121" fill="none" xmlns="http://www.w3.org/2000/svg">
<path d="M22.3513 102.662L13.925 8.15869H106.512L98.075 102.647L60.1625 113.159L22.3513 102.662Z" fill="#E44F26"/>
<path d="M60.2188 105.126L90.8563 96.6325L98.0637 15.8875H60.2188V105.126Z" fill="#F1662A"/>
<path d="M60.2188 50.9349H44.8812L43.8238 39.0661H60.2188V27.4749H31.1562L31.4338 30.5874L34.28 62.5261H60.2188V50.9349ZM60.2188 81.0361L60.1663 81.0511L47.2587 77.5674L46.4338 68.3236H34.7975L36.4213 86.5186L60.1663 93.1111L60.2188 93.0961V81.0361Z" fill="#EBEBEB"/>
<path d="M60.1775 50.9349V62.5261H74.45L73.1075 77.5598L60.1775 81.0474V93.1073L83.9412 86.5186L84.1137 84.5611L86.8362 54.0474L87.1212 50.9349H60.1775ZM60.1775 27.4749V39.0661H88.175L88.4075 36.4636L88.9362 30.5874L89.2137 27.4749H60.1775Z" fill="white"/>
</svg>
