<svg width="121" height="121" viewBox="0 0 121 121" fill="none" xmlns="http://www.w3.org/2000/svg">
<path d="M22.9325 102.662L14.51 8.15869H107.09L98.6562 102.647L60.7437 113.159L22.9325 102.662Z" fill="#1572B6"/>
<path d="M60.8 105.126L91.4375 96.6325L98.645 15.8875H60.8V105.126Z" fill="#33A9DC"/>
<path d="M60.8 50.125H76.1375L77.195 38.2563H60.8V26.665H89.8625L89.585 29.7738L86.7387 61.7163H60.8V50.125Z" fill="white"/>
<path d="M60.8712 80.2263L60.8187 80.2413L47.9112 76.7538L47.0862 67.51H35.45L37.0737 85.7088L60.815 92.3013L60.8712 92.2863V80.2263Z" fill="#EBEBEB"/>
<path d="M75.1512 61.2249L73.7562 76.7461L60.83 80.2336V92.2936L84.59 85.7086L84.7662 83.7511L86.78 61.2249H75.1512Z" fill="white"/>
<path d="M60.8412 26.665V38.2563H32.8437L32.6112 35.65L32.0825 29.7738L31.805 26.665H60.8412ZM60.8 50.125V61.7163H48.0537L47.8212 59.11L47.2962 53.2338L47.0187 50.125H60.8Z" fill="#EBEBEB"/>
</svg>
