<svg width="121" height="121" viewBox="0 0 121 121" fill="none" xmlns="http://www.w3.org/2000/svg">
<path d="M8.47186 8.15869H113.472V113.159H8.47186V8.15869Z" fill="#F5DE19"/>
<path d="M79.0056 90.1902C79.9003 92.0074 81.2902 93.5349 83.0153 94.5964C84.7403 95.658 86.7302 96.2105 88.7556 96.1902C92.8431 96.1902 95.4569 94.1464 95.4569 91.3152C95.4569 87.9402 92.7719 86.7327 88.2719 84.7639L85.8044 83.7064C78.6794 80.6727 73.9544 76.8739 73.9544 68.8414C73.9544 61.4427 79.5794 55.8064 88.4031 55.8064C91.2595 55.6002 94.1134 56.2395 96.6089 57.6446C99.1043 59.0497 101.131 61.1584 102.436 63.7077L94.7219 68.6389C94.2195 67.3749 93.3447 66.2934 92.2135 65.538C91.0823 64.7825 89.7482 64.3888 88.3881 64.4089C87.7947 64.3495 87.1955 64.4144 86.6285 64.5994C86.0616 64.7844 85.5394 65.0854 85.0952 65.4834C84.6511 65.8813 84.2947 66.3674 84.0487 66.9107C83.8028 67.454 83.6728 68.0426 83.6669 68.6389C83.6669 71.5977 85.5006 72.7977 89.7344 74.6389L92.2019 75.6964C100.587 79.2927 105.327 82.9564 105.327 91.1952C105.327 100.079 98.3481 104.946 88.9769 104.946C85.3255 105.179 81.6848 104.35 78.4942 102.559C75.3035 100.769 72.6993 98.0931 70.9956 94.8552L79.0056 90.1902ZM44.1494 91.0452C45.6981 93.7939 47.1081 96.1189 50.4981 96.1189C53.7381 96.1189 55.7856 94.8514 55.7856 89.9202V56.3689H65.6519V90.0514C65.6519 100.266 59.6519 104.916 50.9181 104.916C47.831 105.085 44.765 104.316 42.1232 102.709C39.4814 101.103 37.3876 98.735 36.1169 95.9164L44.1494 91.0452Z" fill="black"/>
</svg>
